<?xml version="1.0" encoding="UTF-8"?>
<svg version="1.1" xmlns="http://www.w3.org/2000/svg" width="388" height="388">
<path d="M0 0 C0.88039948 0.00054382 1.76079895 0.00108765 2.6678772 0.00164795 C16.97813999 0.04219383 30.67528173 0.96160525 44.625 4.375 C45.5212207 4.58930664 46.41744141 4.80361328 47.34082031 5.02441406 C72.69638753 11.2567127 96.92484719 22.42743329 117.625 38.375 C118.49125 39.02984375 119.3575 39.6846875 120.25 40.359375 C142.64799151 57.73217611 160.68926586 79.14630113 173.625 104.375 C173.96869629 105.03790039 174.31239258 105.70080078 174.66650391 106.38378906 C183.36907553 123.36421741 189.33063504 141.58351914 192.625 160.375 C192.80160156 161.35436523 192.97820312 162.33373047 193.16015625 163.34277344 C194.81300705 173.48714524 195.0238885 183.4913374 195 193.75 C194.99918427 195.07059921 194.99918427 195.07059921 194.99835205 196.4178772 C194.95780617 210.72813999 194.03839475 224.42528173 190.625 238.375 C190.30354004 239.71933105 190.30354004 239.71933105 189.97558594 241.09082031 C183.7432873 266.44638753 172.57256671 290.67484719 156.625 311.375 C155.97015625 312.24125 155.3153125 313.1075 154.640625 314 C136.68315142 337.15178412 114.66313752 355.04031745 88.625 368.375 C87.99561523 368.70193848 87.36623047 369.02887695 86.71777344 369.36572266 C70.44679015 377.7282919 52.61944049 383.22036548 34.625 386.375 C33.64563477 386.55160156 32.66626953 386.72820312 31.65722656 386.91015625 C21.51285476 388.56300705 11.5086626 388.7738885 1.25 388.75 C0.36960052 388.74945618 -0.51079895 388.74891235 -1.4178772 388.74835205 C-15.72813999 388.70780617 -29.42528173 387.78839475 -43.375 384.375 C-44.71933105 384.05354004 -44.71933105 384.05354004 -46.09082031 383.72558594 C-71.44638753 377.4932873 -95.67484719 366.32256671 -116.375 350.375 C-117.24125 349.72015625 -118.1075 349.0653125 -119 348.390625 C-141.39799151 331.01782389 -159.43926586 309.60369887 -172.375 284.375 C-172.71869629 283.71209961 -173.06239258 283.04919922 -173.41650391 282.36621094 C-182.11907553 265.38578259 -188.08063504 247.16648086 -191.375 228.375 C-191.55160156 227.39563477 -191.72820312 226.41626953 -191.91015625 225.40722656 C-193.56300705 215.26285476 -193.7738885 205.2586626 -193.75 195 C-193.74945618 194.11960052 -193.74891235 193.23920105 -193.74835205 192.3321228 C-193.70780617 178.02186001 -192.78839475 164.32471827 -189.375 150.375 C-189.16069336 149.4787793 -188.94638672 148.58255859 -188.72558594 147.65917969 C-182.4932873 122.30361247 -171.32256671 98.07515281 -155.375 77.375 C-154.72015625 76.50875 -154.0653125 75.6425 -153.390625 74.75 C-136.01782389 52.35200849 -114.60369887 34.31073414 -89.375 21.375 C-88.71209961 21.03130371 -88.04919922 20.68760742 -87.36621094 20.33349609 C-70.38578259 11.63092447 -52.16648086 5.66936496 -33.375 2.375 C-32.39563477 2.19839844 -31.41626953 2.02179687 -30.40722656 1.83984375 C-20.26285476 0.18699295 -10.2586626 -0.0238885 0 0 Z " fill="#385885" transform="translate(193.375,-0.375)"/>
<path d="M0 0 C0.66 0 1.32 0 2 0 C3.44189453 1.97412109 3.44189453 1.97412109 5.1328125 4.7734375 C5.76606445 5.81298584 6.39931641 6.85253418 7.05175781 7.92358398 C7.74288028 9.07403092 8.43395985 10.22450362 9.125 11.375 C9.84134562 12.55524069 10.55847944 13.73500332 11.27636719 14.91430664 C12.7730039 17.37440946 14.26618135 19.83656104 15.75683594 22.30029297 C18.56363058 26.93518731 21.39844945 31.55259904 24.23803711 36.16748047 C25.57505572 38.34052102 26.90922368 40.51531819 28.24047852 42.69189453 C31.32631641 47.72508346 34.44913174 52.7206505 37.70703125 57.64453125 C38.27583008 58.51215088 38.84462891 59.37977051 39.43066406 60.27368164 C40.48426936 61.87253241 41.55173867 63.4623722 42.63574219 65.04077148 C44.6965286 68.17904862 45.96255993 70.18380655 46.13671875 73.98046875 C44.53855578 78.22576076 42.2501677 81.79241832 39.75 85.5625 C38.66157028 87.24141654 37.57437774 88.92113564 36.48828125 90.6015625 C35.91932129 91.4771582 35.35036133 92.35275391 34.76416016 93.25488281 C31.18130304 98.82997905 27.74107701 104.4946122 24.27832031 110.14477539 C23.76237305 110.98258545 23.24642578 111.82039551 22.71484375 112.68359375 C22.26230225 113.42150146 21.80976074 114.15940918 21.34350586 114.91967773 C19.98453038 117.0239536 18.52642311 119.01472553 17 121 C13.29933634 119.76644545 13.00566977 118.79034708 11.109375 115.4765625 C10.56772705 114.54215332 10.0260791 113.60774414 9.46801758 112.64501953 C8.90107178 111.64841309 8.33412598 110.65180664 7.75 109.625 C6.58316273 107.61392641 5.41520501 105.60350248 4.24609375 103.59375 C3.68647949 102.62695312 3.12686523 101.66015625 2.55029297 100.6640625 C0.68226865 97.45400244 -1.22502513 94.27823657 -3.1875 91.125 C-3.95126953 89.89136719 -3.95126953 89.89136719 -4.73046875 88.6328125 C-5.14941406 88.09398437 -5.56835938 87.55515625 -6 87 C-6.66 87 -7.32 87 -8 87 C-9.37380336 88.80569035 -9.37380336 88.80569035 -10.73046875 91.1875 C-11.27888428 92.10233154 -11.8272998 93.01716309 -12.39233398 93.9597168 C-12.98473877 94.96301025 -13.57714355 95.96630371 -14.1875 97 C-15.45170171 99.11152988 -16.71737562 101.22217889 -17.984375 103.33203125 C-18.64244141 104.4298291 -19.30050781 105.52762695 -19.97851562 106.65869141 C-23.82422454 113.0152581 -27.79559945 119.29350411 -31.76049805 125.57617188 C-35.99455326 132.3113444 -39.98557128 139.11812219 -44 146 C-29.15 146 -14.3 146 1 146 C-0.4676235 149.66905875 -1.77259343 152.45651048 -3.828125 155.73046875 C-4.38113281 156.61669922 -4.93414062 157.50292969 -5.50390625 158.41601562 C-6.08011719 159.33060547 -6.65632812 160.24519531 -7.25 161.1875 C-8.38090729 162.99305198 -9.51111815 164.79904036 -10.640625 166.60546875 C-11.14110352 167.40106201 -11.64158203 168.19665527 -12.15722656 169.01635742 C-14.00059319 171.86276286 -14.00059319 171.86276286 -15.15603638 174.52929688 C-18.60497183 181.4898068 -18.60497183 181.4898068 -22.38647461 182.87278748 C-25.33505975 183.15932036 -28.12725586 183.12642506 -31.0859375 182.9765625 C-32.14285797 182.96241302 -33.19977844 182.94826355 -34.28872681 182.9336853 C-37.65374065 182.87784594 -41.01201179 182.75244057 -44.375 182.625 C-46.66005984 182.57482515 -48.94522443 182.52920025 -51.23046875 182.48828125 C-56.82260018 182.37822337 -62.41081862 182.21106964 -68 182 C-68.28415771 182.91249512 -68.56831543 183.82499023 -68.86108398 184.76513672 C-69.80000395 187.4319512 -70.69300759 189.42242694 -72.22265625 191.7578125 C-72.66730225 192.45285889 -73.11194824 193.14790527 -73.57006836 193.86401367 C-74.60252314 195.42814973 -75.6499623 196.9824598 -76.70922852 198.52856445 C-79.74694334 203.06484539 -82.27023605 207.42126268 -84.23858643 212.53149414 C-91.26675367 230.63498739 -91.26675367 230.63498739 -99 235 C-113.04155543 239.26039386 -129.67573953 236.64844477 -144 235 C-142.68106609 231.47840731 -141.12589004 228.35404219 -139.1640625 225.1484375 C-138.60090332 224.22506592 -138.03774414 223.30169434 -137.45751953 222.3503418 C-136.85278809 221.368479 -136.24805664 220.38661621 -135.625 219.375 C-134.68116455 217.83356323 -134.68116455 217.83356323 -133.71826172 216.26098633 C-129.42978045 209.27477252 -125.07592283 202.33200026 -120.67993164 195.41308594 C-114.32340268 185.39193515 -108.14520951 175.26044193 -101.93554688 165.14794922 C-99.07068912 160.48858042 -96.19312601 155.83713203 -93.3125 151.1875 C-92.78793213 150.34074707 -92.26336426 149.49399414 -91.72290039 148.62158203 C-90.67424843 146.92914049 -89.62550233 145.23675727 -88.57666016 143.54443359 C-85.88291446 139.19723359 -83.19157322 134.8485453 -80.5 130.5 C-77.2862934 125.30788832 -74.07219597 120.11602221 -70.85546875 114.92578125 C-64.19750023 104.18074294 -57.56357392 93.42115408 -50.94213867 82.65356445 C-46.80573506 75.9288704 -42.65910296 69.21067601 -38.5 62.5 C-34.39224736 55.87136362 -30.29427587 49.23682008 -26.20751953 42.59521484 C-24.86691962 40.41661847 -23.52545599 38.23855333 -22.18310547 36.06103516 C-18.9805624 30.86260355 -15.78809104 25.65896207 -12.62733459 20.43504333 C-11.1528022 17.99934104 -9.67302254 15.56684795 -8.19277954 13.13461304 C-7.48372757 11.96615359 -6.77730232 10.79609593 -6.07357788 9.62442017 C-5.09981944 8.00350532 -4.11655728 6.38831107 -3.1328125 4.7734375 C-2.57480957 3.84966309 -2.01680664 2.92588867 -1.44189453 1.97412109 C-0.96606934 1.32266113 -0.49024414 0.67120117 0 0 Z " fill="#000000" transform="translate(193,57)"/>
<path d="M0 0 C3.00710823 2.81203266 5.16549129 5.61247663 7.27734375 9.140625 C8.17163086 10.62369141 8.17163086 10.62369141 9.08398438 12.13671875 C9.69564453 13.16410156 10.30730469 14.19148437 10.9375 15.25 C12.15455666 17.27627672 13.37199761 19.30232268 14.58984375 21.328125 C15.16460449 22.29943359 15.73936523 23.27074219 16.33154297 24.27148438 C17.37784806 25.98256217 18.47017139 27.66719424 19.62548828 29.30664062 C23.08932607 34.24123027 23.08932607 34.24123027 22.65234375 37.953125 C20.45449438 42.00589689 18.08127077 45.8894135 15.5625 49.75 C14.46499391 51.45889616 13.36866496 53.16854883 12.2734375 54.87890625 C11.72139648 55.73887207 11.16935547 56.59883789 10.60058594 57.48486328 C8.24413853 61.18774936 5.96257769 64.93426207 3.6875 68.6875 C-0.58809893 75.72419543 -4.93760565 82.71214789 -9.3125 89.6875 C-14.29269614 97.62918378 -19.20896781 105.60531779 -24.0625 113.625 C-28.8917993 121.59817315 -33.80900967 129.50989586 -38.8125 137.375 C-39.41779541 138.32713379 -40.02309082 139.27926758 -40.64672852 140.26025391 C-44.86754179 146.86754179 -44.86754179 146.86754179 -46 148 C-47.38160115 148.0927833 -48.76788038 148.11747043 -50.15258789 148.11352539 C-51.03342545 148.11344986 -51.914263 148.11337433 -52.8217926 148.11329651 C-53.77907761 148.10813522 -54.73636261 148.10297394 -55.72265625 148.09765625 C-56.69786728 148.0962413 -57.67307831 148.09482635 -58.67784119 148.09336853 C-61.80609143 148.08775133 -64.93427123 148.07519593 -68.0625 148.0625 C-70.17773334 148.05748722 -72.29296781 148.05292393 -74.40820312 148.04882812 C-79.60549296 148.03777631 -84.80274145 148.02102146 -90 148 C-88.89337458 144.44294479 -87.77785813 141.29553303 -85.7421875 138.171875 C-85.29004883 137.46861084 -84.83791016 136.76534668 -84.37207031 136.04077148 C-83.63102051 134.9068396 -83.63102051 134.9068396 -82.875 133.75 C-81.78234728 132.04914418 -80.69128669 130.34726483 -79.6015625 128.64453125 C-79.01793945 127.73396973 -78.43431641 126.8234082 -77.83300781 125.88525391 C-74.58337252 120.77015136 -71.41896482 115.60282757 -68.25 110.4375 C-67.57565918 109.33954102 -66.90131836 108.24158203 -66.20654297 107.11035156 C-64.82549778 104.86137938 -63.44480303 102.61219196 -62.06445312 100.36279297 C-58.71427229 94.90567485 -55.35686797 89.45300618 -52 84 C-47.96383087 77.44202883 -43.92825811 70.88369246 -39.89453125 64.32421875 C-26.67672442 42.83208061 -13.38891868 21.38597043 0 0 Z " fill="#000000" transform="translate(247,144)"/>
<path d="M0 0 C3.25012624 3.00624303 5.48837332 6.12526177 7.78515625 9.90234375 C8.12751816 10.46192276 8.46988007 11.02150177 8.82261658 11.59803772 C9.90789387 13.37468189 10.98527552 15.15596428 12.0625 16.9375 C12.78919961 18.12987066 13.51640863 19.32193102 14.24414062 20.51367188 C16.17011328 23.67135428 18.08792089 26.83387935 20 30 C20.57854736 30.89501221 21.15709473 31.79002441 21.75317383 32.7121582 C23 35 23 35 22.6015625 37.640625 C20.24043138 42.59324149 17.33257622 47.13454757 14.375 51.75 C13.01980529 53.88867183 11.66567717 56.02801981 10.3125 58.16796875 C9.60738281 59.28091309 8.90226562 60.39385742 8.17578125 61.54052734 C5.96316959 65.04710837 3.78942428 68.57680393 1.625 72.11328125 C1.26781891 72.6965921 0.91063782 73.27990295 0.54263306 73.88088989 C-1.18504273 76.70425137 -2.90947397 79.52953855 -4.63134766 82.35644531 C-5.26089355 83.38479492 -5.89043945 84.41314453 -6.5390625 85.47265625 C-7.08771973 86.37250244 -7.63637695 87.27234863 -8.20166016 88.19946289 C-9.09183838 89.58572876 -9.09183838 89.58572876 -10 91 C-10.31831284 91.61926865 -10.63662567 92.23853729 -10.96458435 92.87657166 C-12.64883839 95.80987059 -13.8269546 97.67496682 -17.18023682 98.60411072 C-19.92451282 98.81178215 -22.58183657 98.7872561 -25.33203125 98.68359375 C-26.81965218 98.6687368 -26.81965218 98.6687368 -28.33732605 98.65357971 C-31.4972376 98.61447086 -34.65364317 98.5266545 -37.8125 98.4375 C-39.95763203 98.40238166 -42.10281866 98.37044357 -44.24804688 98.34179688 C-49.49988908 98.26472201 -54.74969411 98.14767158 -60 98 C-55.87950133 89.58988071 -55.87950133 89.58988071 -53.4765625 85.87109375 C-53.02047607 85.15864502 -52.56438965 84.44619629 -52.09448242 83.7121582 C-51.36708862 82.58620239 -51.36708862 82.58620239 -50.625 81.4375 C-46.05376376 74.28304464 -41.58356573 67.07586149 -37.1875 59.8125 C-31.74905218 50.83552181 -26.21730613 41.92157952 -20.63696289 33.03222656 C-15.44692974 24.75047577 -10.35506213 16.41131671 -5.30273438 8.04492188 C-4.75166016 7.13419922 -4.20058594 6.22347656 -3.6328125 5.28515625 C-3.14699707 4.47957275 -2.66118164 3.67398926 -2.16064453 2.84399414 C-1 1 -1 1 0 0 Z " fill="#000001" transform="translate(278,194)"/>
<path d="M0 0 C3.94718097 3.49946832 6.34426881 7.57444919 9 12.0625 C9.96740438 13.67268422 10.93620468 15.28203042 11.90625 16.890625 C12.40898437 17.72529297 12.91171875 18.55996094 13.4296875 19.41992188 C16.55956341 24.56241699 19.79966541 29.63561455 23.02734375 34.71704102 C24.35507742 36.80916608 25.67853953 38.9039089 27 41 C27.6084375 41.96292969 28.216875 42.92585938 28.84375 43.91796875 C30 46 30 46 30 48 C10.53 48 -8.94 48 -29 48 C-27.64976025 44.62440063 -26.49530366 41.94811083 -24.671875 38.91015625 C-23.9763855 37.74867065 -23.9763855 37.74867065 -23.2668457 36.5637207 C-22.76628662 35.73831787 -22.26572754 34.91291504 -21.75 34.0625 C-21.23074951 33.20164795 -20.71149902 32.3407959 -20.17651367 31.45385742 C-2.80004081 2.80004081 -2.80004081 2.80004081 0 0 Z " fill="#010101" transform="translate(309,244)"/>
</svg>
