<?xml version="1.0" encoding="UTF-8"?>
<svg version="1.1" xmlns="http://www.w3.org/2000/svg" width="512" height="512">
<path d="M0 0 C1.37401474 -0.00101212 1.37401474 -0.00101212 2.77578735 -0.00204468 C16.82924365 0.01439247 30.48320551 0.55166643 44.3125 3.25 C45.18148926 3.41097168 46.05047852 3.57194336 46.94580078 3.73779297 C85.77537561 11.09385983 122.49769563 27.49953529 153.3125 52.25 C154.34632813 53.06082031 155.38015625 53.87164062 156.4453125 54.70703125 C171.99976837 67.33756767 186.68790752 81.89954372 198.3125 98.25 C198.74643066 98.84490234 199.18036133 99.43980469 199.62744141 100.05273438 C238.86853383 153.95115626 254.06726697 220.37191429 244.10009766 286.08569336 C242.26192191 297.36191771 239.60077016 308.31402591 236.3125 319.25 C236.07225098 320.06388184 235.83200195 320.87776367 235.58447266 321.71630859 C227.03836876 350.02780918 212.16246069 377.50621532 193.3125 400.25 C192.83232422 400.83168945 192.35214844 401.41337891 191.85742188 402.01269531 C180.5516455 415.60706116 168.38230266 428.48631919 154.3125 439.25 C153.42957275 439.93956787 153.42957275 439.93956787 152.52880859 440.64306641 C143.18744996 447.93544462 133.66648705 454.48420143 123.3125 460.25 C122.59223633 460.65460449 121.87197266 461.05920898 121.12988281 461.47607422 C61.94987623 494.46518633 -6.49675817 500.15325002 -71.3359375 482.2175293 C-106.56846588 472.00968221 -138.44529201 452.92663305 -165.41015625 428.3046875 C-167.3612616 426.54434202 -169.34763544 424.85815677 -171.375 423.1875 C-174.49314358 420.53345221 -177.11958459 417.60299094 -179.76171875 414.48046875 C-181.10147712 412.9287405 -182.48287062 411.41239731 -183.89453125 409.92578125 C-207.49344324 385.03064469 -224.6505974 352.88571475 -234.6875 320.25 C-235.08727051 318.96174316 -235.08727051 318.96174316 -235.49511719 317.64746094 C-253.24033954 259.44570029 -248.13424098 196.31416721 -222.6875 141.25 C-222.18863281 140.1674292 -222.18863281 140.1674292 -221.6796875 139.06298828 C-211.52240957 117.29813003 -198.03245106 97.82001643 -181.6875 80.25 C-180.49528787 78.8790837 -179.30758001 77.50423376 -178.125 76.125 C-171.28807255 68.31807369 -163.80028582 61.70668742 -155.6875 55.25 C-154.63714668 54.38647886 -153.58769037 53.52186565 -152.5390625 52.65625 C-117.70963028 24.20352912 -74.24310665 6.56821205 -29.6875 1.25 C-29.00985596 1.1571875 -28.33221191 1.064375 -27.6340332 0.96875 C-18.47239974 -0.14791443 -9.21488563 0.00608925 0 0 Z " fill="#FEFEFE" transform="translate(255.6875,10.75)"/>
<path d="M0 0 C1.37401474 -0.00101212 1.37401474 -0.00101212 2.77578735 -0.00204468 C16.82924365 0.01439247 30.48320551 0.55166643 44.3125 3.25 C45.18148926 3.41097168 46.05047852 3.57194336 46.94580078 3.73779297 C85.77537561 11.09385983 122.49769563 27.49953529 153.3125 52.25 C154.34632813 53.06082031 155.38015625 53.87164062 156.4453125 54.70703125 C171.99976837 67.33756767 186.68790752 81.89954372 198.3125 98.25 C198.74643066 98.84490234 199.18036133 99.43980469 199.62744141 100.05273438 C238.86853383 153.95115626 254.06726697 220.37191429 244.10009766 286.08569336 C242.26192191 297.36191771 239.60077016 308.31402591 236.3125 319.25 C236.07225098 320.06388184 235.83200195 320.87776367 235.58447266 321.71630859 C227.03836876 350.02780918 212.16246069 377.50621532 193.3125 400.25 C192.83232422 400.83168945 192.35214844 401.41337891 191.85742188 402.01269531 C180.5516455 415.60706116 168.38230266 428.48631919 154.3125 439.25 C153.42957275 439.93956787 153.42957275 439.93956787 152.52880859 440.64306641 C143.18744996 447.93544462 133.66648705 454.48420143 123.3125 460.25 C122.59223633 460.65460449 121.87197266 461.05920898 121.12988281 461.47607422 C61.94987623 494.46518633 -6.49675817 500.15325002 -71.3359375 482.2175293 C-106.56846588 472.00968221 -138.44529201 452.92663305 -165.41015625 428.3046875 C-167.3612616 426.54434202 -169.34763544 424.85815677 -171.375 423.1875 C-174.49314358 420.53345221 -177.11958459 417.60299094 -179.76171875 414.48046875 C-181.10147712 412.9287405 -182.48287062 411.41239731 -183.89453125 409.92578125 C-207.49344324 385.03064469 -224.6505974 352.88571475 -234.6875 320.25 C-235.08727051 318.96174316 -235.08727051 318.96174316 -235.49511719 317.64746094 C-253.24033954 259.44570029 -248.13424098 196.31416721 -222.6875 141.25 C-222.18863281 140.1674292 -222.18863281 140.1674292 -221.6796875 139.06298828 C-211.52240957 117.29813003 -198.03245106 97.82001643 -181.6875 80.25 C-180.49528787 78.8790837 -179.30758001 77.50423376 -178.125 76.125 C-171.28807255 68.31807369 -163.80028582 61.70668742 -155.6875 55.25 C-154.63714668 54.38647886 -153.58769037 53.52186565 -152.5390625 52.65625 C-117.70963028 24.20352912 -74.24310665 6.56821205 -29.6875 1.25 C-29.00985596 1.1571875 -28.33221191 1.064375 -27.6340332 0.96875 C-18.47239974 -0.14791443 -9.21488563 0.00608925 0 0 Z M-39.6875 36.25 C-40.96004639 36.50740967 -40.96004639 36.50740967 -42.25830078 36.77001953 C-98.20458365 48.29715828 -146.96047102 81.83000926 -178.46875 129.39453125 C-201.13200161 164.64847819 -212.72039671 204.07913407 -212.9375 245.875 C-212.94303894 246.57247345 -212.94857788 247.2699469 -212.95428467 247.98855591 C-213.01189015 257.92579408 -212.24150232 267.41671563 -210.6875 277.25 C-210.56181641 278.08885742 -210.43613281 278.92771484 -210.30664062 279.79199219 C-208.81409016 289.5112335 -206.70055703 298.8803646 -203.6875 308.25 C-203.45579102 308.98025391 -203.22408203 309.71050781 -202.98535156 310.46289062 C-193.31691815 340.60052992 -177.90104898 367.72324535 -156.0625 390.69921875 C-153.6875 393.25 -153.6875 393.25 -151.5859375 395.890625 C-149.92309367 397.95720457 -148.32623661 399.60401306 -146.3125 401.3125 C-143.71268517 403.52306344 -141.12725577 405.7425799 -138.58203125 408.015625 C-115.77346383 428.22887086 -88.55400267 441.9386181 -59.6875 451.25 C-58.47964844 451.641875 -57.27179688 452.03375 -56.02734375 452.4375 C-15.2386973 464.42589666 29.35863501 461.62540304 69.3125 448.25 C70.07626953 447.99460449 70.84003906 447.73920898 71.62695312 447.47607422 C101.59168792 437.24838506 127.65515405 420.23710144 150.3125 398.25 C151.20582031 397.39664062 152.09914063 396.54328125 153.01953125 395.6640625 C179.80922312 369.57394784 199.27454609 334.00199726 208.0625 297.75 C208.3423877 296.59685303 208.3423877 296.59685303 208.62792969 295.42041016 C209.24601491 292.70560677 209.78864311 289.98468171 210.3125 287.25 C210.43851593 286.60671753 210.56453186 285.96343506 210.69436646 285.30065918 C213.24118498 272.00290617 213.83638509 259.01815512 213.75 245.5 C213.74695862 244.48841827 213.74391724 243.47683655 213.74078369 242.43460083 C213.67512301 227.66692973 213.12264652 213.59204813 209.3125 199.25 C209.09287598 198.37279297 208.87325195 197.49558594 208.64697266 196.59179688 C204.00854892 178.22193188 197.23210964 160.94712711 188.3125 144.25 C187.99700195 143.6523584 187.68150391 143.0547168 187.35644531 142.43896484 C182.18289583 132.71644465 176.07626873 123.9170452 169.3125 115.25 C168.89693848 114.71584473 168.48137695 114.18168945 168.05322266 113.63134766 C156.13174017 98.50665197 142.14402004 84.25290642 126.3125 73.25 C125.22898549 72.4637913 124.14565731 71.67732575 123.0625 70.890625 C99.92565159 54.45180529 73.03025423 43.12139525 45.3125 37.25 C44.03117187 36.96511719 42.74984375 36.68023437 41.4296875 36.38671875 C27.7626913 33.4738539 14.29258203 33.01035743 0.375 33 C-0.44419922 32.99932526 -1.26339844 32.99865051 -2.10742188 32.99795532 C-14.86331721 33.01460346 -27.17078494 33.60852729 -39.6875 36.25 Z " fill="#EF5350" transform="translate(255.6875,10.75)"/>
<path d="M0 0 C5.93902433 2.67141442 9.74406231 7.14484342 13.0234375 12.66015625 C15.51765927 23.38530988 11.63417882 30.1448016 6.66162109 39.40527344 C1.17950859 49.91507755 -1.73773596 59.84784474 -1.6640625 71.66015625 C-1.65914795 72.59077881 -1.6542334 73.52140137 -1.64916992 74.48022461 C-1.53469446 81.1873123 -0.82529474 87.0689463 1.6484375 93.34765625 C2.00035156 94.32734375 2.35226563 95.30703125 2.71484375 96.31640625 C9.4175366 113.83631628 22.28066818 126.52870022 39.0859375 134.59765625 C56.90570614 141.86336157 74.96350371 140.97421947 92.7109375 134.09765625 C110.73021834 126.1936375 122.35529691 113.66251666 129.5859375 95.34765625 C135.0155344 80.62332567 135.11472507 61.28904349 129.2890625 46.69140625 C126.84922348 41.71878196 124.21053494 36.90039875 121.3203125 32.17578125 C117.95055252 26.47553305 117.92565404 20.8198536 118.6484375 14.34765625 C121.043058 8.03081251 125.786819 3.69604951 131.47265625 0.23828125 C136.51489 -1.82568517 142.81402805 -1.43863341 148 0 C159.31504859 5.08958749 165.78390177 19.12166655 170.23046875 30.078125 C181.04947578 59.52805048 180.52771479 90.65753284 167.6484375 119.34765625 C162.84892466 129.40356717 156.99905505 137.98015485 149.6484375 146.34765625 C148.8646875 147.37890625 148.0809375 148.41015625 147.2734375 149.47265625 C143.1684855 153.96855606 138.45345143 157.62638187 133.6484375 161.34765625 C132.4728125 162.26417969 132.4728125 162.26417969 131.2734375 163.19921875 C113.20687593 176.56603289 91.19077405 183.52469349 68.85058594 183.58789062 C66.8140161 183.59746547 64.77851531 183.62846243 62.7421875 183.66015625 C32.96685544 183.90322019 6.80318125 170.65225303 -14.47265625 150.28125 C-35.44716097 129.40492083 -45.51315464 100.81557417 -45.6640625 71.59765625 C-45.66970215 70.56825928 -45.6753418 69.5388623 -45.68115234 68.47827148 C-45.47539716 46.67694077 -38.96025175 21.50954425 -23.4296875 5.34765625 C-16.47873136 -0.83097143 -9.19275254 -2.55014896 0 0 Z " fill="#EF5451" transform="translate(190.3515625,190.65234375)"/>
<path d="M0 0 C6.53274153 3.69581394 10.50892671 9.35084988 12.8125 16.4375 C13.09188827 19.2664726 13.23383291 21.87033364 13.21655273 24.69262695 C13.22341599 25.48713257 13.23027924 26.28163818 13.23735046 27.10021973 C13.25554902 29.70892562 13.25179006 32.31702591 13.24609375 34.92578125 C13.25065979 36.75270277 13.25596662 38.57962258 13.26197815 40.40653992 C13.27089632 44.23032622 13.26850195 48.05390354 13.25854492 51.87768555 C13.24707325 56.75649831 13.26724561 61.63458533 13.29646206 66.5133028 C13.31489057 70.28564472 13.31451812 74.05781498 13.30882454 77.83019066 C13.30867205 79.627769 13.31465606 81.42535951 13.32711601 83.22289467 C13.44895815 103.68571096 13.44895815 103.68571096 6.84765625 111.875 C0.80117705 116.66429045 -3.62130344 119.07843374 -11.49609375 118.8671875 C-17.35640907 117.93157838 -21.81574427 115.12116832 -25.71220398 110.71228027 C-31.88264154 102.14467592 -31.00536878 93.02697256 -30.87890625 82.9296875 C-30.87532335 81.03500654 -30.87397295 79.14032018 -30.8747406 77.24563599 C-30.87006778 73.28987889 -30.84536764 69.33494468 -30.80493164 65.37939453 C-30.75389394 60.32452309 -30.74249197 55.27055119 -30.74476719 50.21545219 C-30.74394923 46.30847689 -30.7274613 42.40169578 -30.70576286 38.49478531 C-30.69625977 36.63138418 -30.69031404 34.76796122 -30.68808174 32.9045372 C-30.68153338 30.29649556 -30.65518296 27.68938275 -30.62329102 25.08154297 C-30.62465057 24.32185211 -30.62601013 23.56216125 -30.62741089 22.77944946 C-30.51893663 16.67398397 -29.23041208 11.29454288 -25.609375 6.23046875 C-18.26836231 -0.81896166 -9.76806786 -4.3247934 0 0 Z " fill="#EF5350" transform="translate(265.1875,140.5625)"/>
</svg>
