<?xml version="1.0" encoding="UTF-8"?>
<svg version="1.1" xmlns="http://www.w3.org/2000/svg" width="512" height="512">
<path d="M0 0 C1.01790619 0.00215515 2.03581238 0.0043103 3.08456421 0.00653076 C17.69363523 0.05620146 32.02575853 0.30709809 46.375 3.3125 C47.34985352 3.51117676 48.32470703 3.70985352 49.32910156 3.91455078 C97.7109774 14.03517194 141.69928269 35.9516877 177.375 70.3125 C178.3640332 71.26068604 178.3640332 71.26068604 179.37304688 72.22802734 C188.86130305 81.37247479 197.6012044 90.66984009 205.375 101.3125 C206.23306152 102.46355017 207.09113451 103.61459177 207.94921875 104.765625 C213.98736829 112.95680614 219.34595521 121.47054105 224.375 130.3125 C224.73948242 130.94430176 225.10396484 131.57610352 225.47949219 132.22705078 C247.08534998 169.97532572 256.85198095 212.74189997 256.6875 255.9375 C256.68534485 256.95540619 256.6831897 257.97331238 256.68096924 259.02206421 C256.63129854 273.63113523 256.38040191 287.96325853 253.375 302.3125 C253.07698486 303.77478027 253.07698486 303.77478027 252.77294922 305.26660156 C242.65232806 353.6484774 220.7358123 397.63678269 186.375 433.3125 C185.74287598 433.97185547 185.11075195 434.63121094 184.45947266 435.31054688 C175.31502521 444.79880305 166.01765991 453.5387044 155.375 461.3125 C154.22394983 462.17056152 153.07290823 463.02863451 151.921875 463.88671875 C143.73224019 469.92427396 135.22961724 475.30707302 126.375 480.3125 C125.66778809 480.7146875 124.96057617 481.116875 124.23193359 481.53125 C101.09654164 494.5566741 75.92537591 503.30551461 49.9375 508.625 C49.21860596 508.77235596 48.49971191 508.91971191 47.7590332 509.0715332 C33.08339502 511.86090125 18.55831162 512.66142619 3.64770508 512.62817383 C0.70811513 512.6250221 -2.2304558 512.64854926 -5.16992188 512.67382812 C-18.54306192 512.71848737 -31.43916711 511.51301542 -44.625 509.3125 C-46.33055054 509.03031616 -46.33055054 509.03031616 -48.07055664 508.74243164 C-91.33802759 500.97044532 -132.38793216 480.98345309 -165.625 452.3125 C-166.37007813 451.67828125 -167.11515625 451.0440625 -167.8828125 450.390625 C-181.38779833 438.57948485 -194.05918743 425.82889772 -204.625 411.3125 C-205.48149066 410.16255169 -206.33826433 409.01281411 -207.1953125 407.86328125 C-213.23534209 399.67315742 -218.61867614 391.16870382 -223.625 382.3125 C-224.0271875 381.60528809 -224.429375 380.89807617 -224.84375 380.16943359 C-237.8691741 357.03404164 -246.61801461 331.86287591 -251.9375 305.875 C-252.08485596 305.15610596 -252.23221191 304.43721191 -252.3840332 303.6965332 C-255.35789088 288.05024391 -255.99800362 272.57681954 -255.9375 256.6875 C-255.93534485 255.66959381 -255.9331897 254.65168762 -255.93096924 253.60293579 C-255.88129854 238.99386477 -255.63040191 224.66174147 -252.625 210.3125 C-252.42632324 209.33764648 -252.22764648 208.36279297 -252.02294922 207.35839844 C-241.90232806 158.9765226 -219.9858123 114.98821731 -185.625 79.3125 C-184.99287598 78.65314453 -184.36075195 77.99378906 -183.70947266 77.31445312 C-174.56502521 67.82619695 -165.26765991 59.0862956 -154.625 51.3125 C-153.47394983 50.45443848 -152.32290823 49.59636549 -151.171875 48.73828125 C-142.98224019 42.70072604 -134.47961724 37.31792698 -125.625 32.3125 C-124.91778809 31.9103125 -124.21057617 31.508125 -123.48193359 31.09375 C-100.34654164 18.0683259 -75.17537591 9.31948539 -49.1875 4 C-48.46860596 3.85264404 -47.74971191 3.70528809 -47.0090332 3.5534668 C-31.36274391 0.57960912 -15.88931954 -0.06050362 0 0 Z M-139.625 79.3125 C-140.64464844 80.12847656 -141.66429687 80.94445312 -142.71484375 81.78515625 C-156.94691101 93.34636173 -169.86976891 106.45498594 -180.625 121.3125 C-181.38941406 122.35535156 -182.15382812 123.39820312 -182.94140625 124.47265625 C-218.23017184 173.99967161 -231.90804431 234.50974988 -222.46118164 294.5222168 C-214.66043154 339.60468842 -193.12744031 380.44773492 -161.625 413.3125 C-161.12242676 413.84230469 -160.61985352 414.37210937 -160.10205078 414.91796875 C-120.08278166 456.92011845 -63.17675371 480.08735347 -5.625 482.3125 C47.14019442 483.15520788 99.06460635 466.45287151 140.375 433.3125 C141.38304687 432.508125 142.39109375 431.70375 143.4296875 430.875 C156.28249569 420.41106453 168.41650885 408.57796179 178.375 395.3125 C178.76848633 394.79010742 179.16197266 394.26771484 179.56738281 393.72949219 C186.13306222 384.95307739 191.93592652 375.82212204 197.375 366.3125 C197.71241211 365.73483887 198.04982422 365.15717773 198.39746094 364.56201172 C214.99583114 336.0047182 225.27551352 300.73988567 225.61328125 267.6328125 C225.6230751 266.8307135 225.63286896 266.0286145 225.64295959 265.20220947 C226.17483187 210.26480116 211.55396278 158.37066265 176.375 115.3125 C175.95959961 114.79558594 175.54419922 114.27867188 175.11621094 113.74609375 C164.21064944 100.20356582 152.08166328 87.90836039 138.078125 77.57128906 C136.41465069 76.34180604 134.76972448 75.09033788 133.125 73.8359375 C57.91520323 17.39782584 -49.34202864 16.81877052 -139.625 79.3125 Z " fill="#7484F2" transform="translate(255.625,-0.3125)"/>
<path d="M0 0 C8.92510124 7.13676926 10.25743498 15.73412956 11.49609375 26.59375 C11.5940625 27.57214844 11.69203125 28.55054688 11.79296875 29.55859375 C12.26863281 29.15769531 12.74429688 28.75679687 13.234375 28.34375 C41.6880799 5.23493994 77.9044297 -3.91748952 114.08349609 -0.73486328 C151.09595401 3.27387473 185.09816191 22.21245886 208.58789062 51.07397461 C219.99573369 65.56008966 228.29056532 82.63298333 233.60546875 100.24609375 C233.80043945 100.88603271 233.99541016 101.52597168 234.19628906 102.18530273 C237.49653993 113.7929311 238.20380741 125.55385426 238.16796875 137.55859375 C238.16709259 138.27992493 238.16621643 139.0012561 238.16531372 139.7444458 C238.00780569 179.2326347 221.74033548 212.79074215 193.953125 240.40625 C177.1268854 256.70257417 155.44154896 267.8675307 132.79296875 273.55859375 C131.60316406 273.87570312 130.41335938 274.1928125 129.1875 274.51953125 C94.14229504 282.30735457 55.31348592 275.27599847 24.93798828 256.40625 C16.10630975 250.65209897 8.36879934 243.85263379 0.79296875 236.55859375 C0.02597656 235.86636719 -0.74101562 235.17414063 -1.53125 234.4609375 C-13.36477024 223.43473103 -21.63394961 209.18791391 -28.20703125 194.55859375 C-28.79484375 193.29208984 -28.79484375 193.29208984 -29.39453125 192 C-31.42727994 185.89198109 -31.32521097 178.10346028 -28.70703125 172.18359375 C-25.5395904 166.88206155 -20.85504396 162.91202247 -15.39453125 160.12109375 C-7.71540666 158.76595412 -0.11982796 158.61873796 6.79296875 162.55859375 C12.44818261 167.1285768 15.62758676 172.39750614 18.73046875 178.87109375 C22.40545036 186.15901726 26.19391357 192.55194451 31.79296875 198.55859375 C32.52773437 199.38359375 33.2625 200.20859375 34.01953125 201.05859375 C48.40620914 216.42937664 70.57290617 227.6491625 91.79296875 228.55859375 C92.86546875 228.61015625 93.93796875 228.66171875 95.04296875 228.71484375 C118.8051815 229.30889907 141.94621689 221.51603149 159.79296875 205.55859375 C160.62570312 204.81996094 161.4584375 204.08132813 162.31640625 203.3203125 C176.51172973 189.97670843 185.47833439 171.65088768 188.79296875 152.55859375 C188.92316406 151.85734375 189.05335938 151.15609375 189.1875 150.43359375 C192.72076128 127.82072158 185.99320495 102.93621534 172.625 84.58203125 C170.42242692 81.82976265 168.15021991 79.179133 165.79296875 76.55859375 C165.16777344 75.85089844 164.54257812 75.14320313 163.8984375 74.4140625 C149.80975522 59.37624794 127.52840157 48.44884489 106.79296875 47.55859375 C105.73207031 47.50703125 104.67117188 47.45546875 103.578125 47.40234375 C83.43408038 46.89504357 66.11114982 52.42909161 48.79296875 62.55859375 C48.46296875 62.88859375 48.13296875 63.21859375 47.79296875 63.55859375 C49.07171875 63.584375 50.35046875 63.61015625 51.66796875 63.63671875 C53.3763344 63.6930385 55.08466642 63.75038493 56.79296875 63.80859375 C58.05173828 63.82986328 58.05173828 63.82986328 59.3359375 63.8515625 C66.69583906 64.13683 71.95670314 66.10909163 77.54296875 70.93359375 C83.78883155 78.22043369 85.22064738 83.44936117 85.1328125 92.90625 C84.48764524 99.8399441 81.58139504 105.17345429 76.60546875 109.99609375 C68.82476334 115.7506559 59.27861808 116.09875112 49.9375 116.5078125 C48.71882736 116.57015579 47.50015472 116.63249908 46.24455261 116.69673157 C43.6705658 116.82590791 41.09627271 116.94910528 38.52172852 117.06665039 C34.66145765 117.24352833 30.80253226 117.43940433 26.94335938 117.63867188 C19.56180753 118.00887354 12.17914772 118.29903605 4.79296875 118.55859375 C3.67613708 118.60324768 2.55930542 118.64790161 1.40863037 118.69390869 C-1.7093799 118.80985398 -4.82587332 118.88811361 -7.9453125 118.953125 C-8.84364304 118.9900798 -9.74197357 119.02703461 -10.66752625 119.06510925 C-18.10081744 119.14552311 -24.33560179 116.82886062 -30.0514679 112.00056458 C-38.33826572 103.19926982 -37.90559642 91.26998958 -38.4453125 79.93359375 C-38.53474759 78.21919902 -38.62494539 76.50484393 -38.71586609 74.79052734 C-38.9028479 71.21032121 -39.08078026 67.62981224 -39.25219727 64.04882812 C-39.47167129 59.47864014 -39.71350315 54.90996205 -39.96212482 50.34127808 C-40.15208456 46.80536757 -40.33022303 43.26893558 -40.50487328 39.73223877 C-40.5894156 38.04809243 -40.67752766 36.36412108 -40.76940346 34.68035889 C-41.94047208 12.91372069 -41.94047208 12.91372069 -34.91015625 4.34765625 C-25.46943088 -5.56943599 -11.58863697 -7.56850804 0 0 Z " fill="#7484F2" transform="translate(157.20703125,119.44140625)"/>
</svg>
