<?xml version="1.0" encoding="UTF-8"?>
<svg version="1.1" xmlns="http://www.w3.org/2000/svg" width="512" height="512">
<path d="M0 0 C1.27101563 -0.02320313 2.54203125 -0.04640625 3.8515625 -0.0703125 C12.63983822 -0.0148076 12.63983822 -0.0148076 15.97729492 1.86181641 C18.55262387 4.5580421 19.02984263 6.98635365 19.48828125 10.6171875 C19.45551605 11.95400786 19.39655768 13.29042271 19.3125 14.625 C19.28994141 15.31335938 19.26738281 16.00171875 19.24414062 16.7109375 C19.1857849 18.39158245 19.09612071 20.07109153 19 21.75 C20.52560547 21.89888672 20.52560547 21.89888672 22.08203125 22.05078125 C27.29148296 22.980484 31.3515632 25.24205934 36.01171875 27.66796875 C38.8412477 29.01840083 38.8412477 29.01840083 41.1640625 28.15234375 C43.18177023 26.61115848 44.9093192 24.93673139 46.6875 23.125 C49.52088547 20.64251439 51.58443751 19.13911969 55.375 18.75 C61.83178682 19.29454829 65.77153413 24.30503668 70 28.75 C70.79535156 29.50410156 71.59070313 30.25820313 72.41015625 31.03515625 C75.86686854 34.49186854 78.49952616 37.30585783 78.9375 42.3125 C78.51582739 47.04184771 76.02175493 49.6916109 72.7265625 52.92578125 C70.89469289 54.86126339 69.77968509 56.19436553 69 58.75 C69.78063013 61.20711139 69.78063013 61.20711139 71.25 63.625 C74.01268549 68.74387229 76 72.84082305 76 78.75 C77.01320313 78.69199219 78.02640625 78.63398438 79.0703125 78.57421875 C80.42182864 78.52729111 81.77339499 78.48179417 83.125 78.4375 C83.79015625 78.39560547 84.4553125 78.35371094 85.140625 78.31054688 C88.80178197 78.22081264 91.15785256 78.82660492 94.453125 80.42578125 C97.40177533 83.24031137 97.4930523 86.0051305 97.7265625 89.96875 C97.72390969 92.39606798 97.68892196 94.82352239 97.625 97.25 C97.63144531 98.47332031 97.63789063 99.69664062 97.64453125 100.95703125 C97.52332249 111.03939609 97.52332249 111.03939609 93 115.75 C89.93466836 117.28266582 86.73245728 116.85276471 83.375 116.8125 C82.66859375 116.80798828 81.9621875 116.80347656 81.234375 116.79882812 C79.48954725 116.78703875 77.744763 116.76910324 76 116.75 C75.90074219 117.76707031 75.80148437 118.78414063 75.69921875 119.83203125 C74.769516 125.04148296 72.50794066 129.1015632 70.08203125 133.76171875 C68.73159917 136.5912477 68.73159917 136.5912477 69.59765625 138.9140625 C71.13884152 140.93177023 72.81326861 142.6593192 74.625 144.4375 C77.10748561 147.27088547 78.61088031 149.33443751 79 153.125 C78.45545171 159.58178682 73.44496332 163.52153413 69 167.75 C68.24589844 168.54535156 67.49179687 169.34070313 66.71484375 170.16015625 C63.25813146 173.61686854 60.44414217 176.24952616 55.4375 176.6875 C50.70815229 176.26582739 48.0583891 173.77175493 44.82421875 170.4765625 C42.88873661 168.64469289 41.55563447 167.52968509 39 166.75 C36.54288861 167.53063013 36.54288861 167.53063013 34.125 169 C29.00612771 171.76268549 24.90917695 173.75 19 173.75 C19.05800781 174.76320313 19.11601562 175.77640625 19.17578125 176.8203125 C19.22270889 178.17182864 19.26820583 179.52339499 19.3125 180.875 C19.35439453 181.54015625 19.39628906 182.2053125 19.43945312 182.890625 C19.52866735 186.53056539 18.92355555 188.91015203 17.35546875 192.1953125 C14.49352314 195.19160986 11.58351639 195.27450267 7.5625 195.546875 C5.04166852 195.56279604 2.5204618 195.54601249 0 195.5 C-1.27101563 195.52320313 -2.54203125 195.54640625 -3.8515625 195.5703125 C-12.63983822 195.5148076 -12.63983822 195.5148076 -15.97729492 193.63818359 C-18.55262387 190.9419579 -19.02984263 188.51364635 -19.48828125 184.8828125 C-19.45551605 183.54599214 -19.39655768 182.20957729 -19.3125 180.875 C-19.28994141 180.18664062 -19.26738281 179.49828125 -19.24414062 178.7890625 C-19.1857849 177.10841755 -19.09612071 175.42890847 -19 173.75 C-20.01707031 173.65074219 -21.03414063 173.55148437 -22.08203125 173.44921875 C-27.29148296 172.519516 -31.3515632 170.25794066 -36.01171875 167.83203125 C-38.8412477 166.48159917 -38.8412477 166.48159917 -41.1640625 167.34765625 C-43.18177023 168.88884152 -44.9093192 170.56326861 -46.6875 172.375 C-49.52088547 174.85748561 -51.58443751 176.36088031 -55.375 176.75 C-61.83178682 176.20545171 -65.77153413 171.19496332 -70 166.75 C-70.79535156 165.99589844 -71.59070313 165.24179687 -72.41015625 164.46484375 C-75.86686854 161.00813146 -78.49952616 158.19414217 -78.9375 153.1875 C-78.51582739 148.45815229 -76.02175493 145.8083891 -72.7265625 142.57421875 C-70.89469289 140.63873661 -69.77968509 139.30563447 -69 136.75 C-69.78063013 134.29288861 -69.78063013 134.29288861 -71.25 131.875 C-74.01268549 126.75612771 -76 122.65917695 -76 116.75 C-77.01320312 116.80800781 -78.02640625 116.86601562 -79.0703125 116.92578125 C-80.42182864 116.97270889 -81.77339499 117.01820583 -83.125 117.0625 C-83.79015625 117.10439453 -84.4553125 117.14628906 -85.140625 117.18945312 C-88.78056539 117.27866735 -91.16015203 116.67355555 -94.4453125 115.10546875 C-97.44160986 112.24352314 -97.52450267 109.33351639 -97.796875 105.3125 C-97.81279604 102.79166852 -97.79601249 100.2704618 -97.75 97.75 C-97.77320313 96.47898437 -97.79640625 95.20796875 -97.8203125 93.8984375 C-97.7648076 85.11016178 -97.7648076 85.11016178 -95.88818359 81.77270508 C-93.1919579 79.19737613 -90.76364635 78.72015737 -87.1328125 78.26171875 C-85.79599214 78.29448395 -84.45957729 78.35344232 -83.125 78.4375 C-82.43664062 78.46005859 -81.74828125 78.48261719 -81.0390625 78.50585938 C-79.35841755 78.5642151 -77.67890847 78.65387929 -76 78.75 C-75.8865625 77.71230469 -75.773125 76.67460937 -75.65625 75.60546875 C-75.03568701 71.95966116 -74.11718825 69.35799117 -72.5 66.0625 C-70.10983329 61.58846357 -70.10983329 61.58846357 -69 56.75 C-70.60656891 54.57341409 -70.60656891 54.57341409 -72.875 52.625 C-76.37582244 49.39253329 -78.16129346 47.55880854 -78.625 42.75 C-78.56023765 36.98615075 -75.4896259 34.1146259 -71.56640625 30.19140625 C-70.71949219 29.38574219 -69.87257813 28.58007812 -69 27.75 C-68.24589844 26.95464844 -67.49179687 26.15929687 -66.71484375 25.33984375 C-63.25813146 21.88313146 -60.44414217 19.25047384 -55.4375 18.8125 C-50.70815229 19.23417261 -48.0583891 21.72824507 -44.82421875 25.0234375 C-42.88873661 26.85530711 -41.55563447 27.97031491 -39 28.75 C-36.54288861 27.96936987 -36.54288861 27.96936987 -34.125 26.5 C-29.00612771 23.73731451 -24.90917695 21.75 -19 21.75 C-19.05800781 20.73679688 -19.11601562 19.72359375 -19.17578125 18.6796875 C-19.22270889 17.32817136 -19.26820583 15.97660501 -19.3125 14.625 C-19.35439453 13.95984375 -19.39628906 13.2946875 -19.43945312 12.609375 C-19.52866735 8.96943461 -18.92355555 6.58984797 -17.35546875 3.3046875 C-12.97856191 -1.27768972 -5.8280167 -0.10639381 0 0 Z M-24 78.75 C-29.52417009 86.88509625 -30.84545663 93.96685898 -30 103.75 C-28.06674655 111.87898137 -23.62052011 118.61241709 -16.6875 123.3203125 C-8.62756648 127.96007686 -0.47581048 129.29009246 8.7265625 127.1015625 C17.75311266 123.83188334 23.66674833 118.3046464 28.08984375 109.86328125 C31.23172632 102.56818053 31.12430383 93.91741569 28.4375 86.5 C24.52544108 77.97827725 18.58211731 72.44617991 10 68.75 C-2.62934618 64.73741751 -15.43326207 69.00295595 -24 78.75 Z " fill="#FF3E5B" transform="translate(332,226.25)"/>
<path d="M0 0 C10.67961313 2.18685293 19.59662049 1.5202123 30.171875 -0.80859375 C45.84401698 -4.11069353 59.54425951 3.26768471 72.75 11.4375 C79.61514226 16.01195118 85.61208074 20.95884634 90.75 27.4375 C85.68718536 26.99078106 83.42233825 24.70180066 79.75 21.4375 C77.33878742 20.23189371 75.69053653 20.23641885 73 20.1875 C72.15953125 20.16171875 71.3190625 20.1359375 70.453125 20.109375 C63.00805861 21.01311138 58.50325655 26.22677219 53.5 31.3125 C52.78070313 32.02019531 52.06140625 32.72789062 51.3203125 33.45703125 C50.63195312 34.14925781 49.94359375 34.84148437 49.234375 35.5546875 C48.30189941 36.49223877 48.30189941 36.49223877 47.35058594 37.44873047 C43.74053942 41.93430687 43.31805101 46.43117536 43.42578125 52 C43.99930237 56.31177321 46.21406286 59.21934296 49.5625 61.875 C50.75 63.4375 50.75 63.4375 50.6875 66.625 C48.50218455 75.51194949 48.50218455 75.51194949 45.75 78.4375 C43.23942495 79.06403289 40.93937923 79.12643269 38.35546875 79.1875 C34.0382791 79.60174308 30.93901687 81.57811709 27.75 84.4375 C22.03130229 93.29225774 22.57492473 106.32228044 24.24609375 116.44140625 C25.87562732 121.88239123 28.66445721 125.56529962 33.59765625 128.55859375 C36.12195745 129.58938825 38.03497926 129.5707775 40.75 129.5625 C45.27660908 129.93582858 45.27660908 129.93582858 47.25390625 132.03125 C48.35429784 134.14270249 49.09151475 136.15120649 49.75 138.4375 C50.12125 139.613125 50.4925 140.78875 50.875 142 C50.71523237 146.39360989 49.22530791 147.84347259 46.1953125 150.859375 C43.36772198 153.94679816 43.64082238 157.15740256 43.6875 161.125 C43.69652344 162.11886719 43.70554688 163.11273438 43.71484375 164.13671875 C43.73224609 165.27560547 43.73224609 165.27560547 43.75 166.4375 C11.44703364 175.24739992 -24.91876775 168.55276945 -54.25 153.4375 C-55.19875 152.96699219 -56.1475 152.49648438 -57.125 152.01171875 C-74.32621525 143.1360917 -96.33870119 127.12507793 -105.25 109.4375 C-106.77831859 104.16257516 -105.78715221 100.02431981 -104.375 94.875 C-104.15231445 94.05290039 -103.92962891 93.23080078 -103.70019531 92.38378906 C-93.55448473 56.82689318 -70.96898583 25.57568833 -38.69335938 7.15771484 C-25.42244974 -0.12888274 -15.09517853 -3.32415102 0 0 Z " fill="#FF3E5B" transform="translate(204.25,219.5625)"/>
<path d="M0 0 C1.01790619 0.00215515 2.03581238 0.0043103 3.08456421 0.00653076 C17.69363523 0.05620146 32.02575853 0.30709809 46.375 3.3125 C47.34985352 3.51117676 48.32470703 3.70985352 49.32910156 3.91455078 C97.7109774 14.03517194 141.69928269 35.9516877 177.375 70.3125 C178.3640332 71.26068604 178.3640332 71.26068604 179.37304688 72.22802734 C188.86130305 81.37247479 197.6012044 90.66984009 205.375 101.3125 C206.23306152 102.46355017 207.09113451 103.61459177 207.94921875 104.765625 C213.98736829 112.95680614 219.34595521 121.47054105 224.375 130.3125 C224.73948242 130.94430176 225.10396484 131.57610352 225.47949219 132.22705078 C247.08534998 169.97532572 256.85198095 212.74189997 256.6875 255.9375 C256.68534485 256.95540619 256.6831897 257.97331238 256.68096924 259.02206421 C256.63129854 273.63113523 256.38040191 287.96325853 253.375 302.3125 C253.07698486 303.77478027 253.07698486 303.77478027 252.77294922 305.26660156 C242.65232806 353.6484774 220.7358123 397.63678269 186.375 433.3125 C185.74287598 433.97185547 185.11075195 434.63121094 184.45947266 435.31054688 C175.31502521 444.79880305 166.01765991 453.5387044 155.375 461.3125 C154.22394983 462.17056152 153.07290823 463.02863451 151.921875 463.88671875 C143.73224019 469.92427396 135.22961724 475.30707302 126.375 480.3125 C125.66778809 480.7146875 124.96057617 481.116875 124.23193359 481.53125 C101.09654164 494.5566741 75.92537591 503.30551461 49.9375 508.625 C49.21860596 508.77235596 48.49971191 508.91971191 47.7590332 509.0715332 C33.08339502 511.86090125 18.55831162 512.66142619 3.64770508 512.62817383 C0.70811513 512.6250221 -2.2304558 512.64854926 -5.16992188 512.67382812 C-18.54306192 512.71848737 -31.43916711 511.51301542 -44.625 509.3125 C-46.33055054 509.03031616 -46.33055054 509.03031616 -48.07055664 508.74243164 C-91.33802759 500.97044532 -132.38793216 480.98345309 -165.625 452.3125 C-166.37007813 451.67828125 -167.11515625 451.0440625 -167.8828125 450.390625 C-181.38779833 438.57948485 -194.05918743 425.82889772 -204.625 411.3125 C-205.48149066 410.16255169 -206.33826433 409.01281411 -207.1953125 407.86328125 C-213.23534209 399.67315742 -218.61867614 391.16870382 -223.625 382.3125 C-224.0271875 381.60528809 -224.429375 380.89807617 -224.84375 380.16943359 C-237.8691741 357.03404164 -246.61801461 331.86287591 -251.9375 305.875 C-252.08485596 305.15610596 -252.23221191 304.43721191 -252.3840332 303.6965332 C-255.35789088 288.05024391 -255.99800362 272.57681954 -255.9375 256.6875 C-255.93534485 255.66959381 -255.9331897 254.65168762 -255.93096924 253.60293579 C-255.88129854 238.99386477 -255.63040191 224.66174147 -252.625 210.3125 C-252.42632324 209.33764648 -252.22764648 208.36279297 -252.02294922 207.35839844 C-241.90232806 158.9765226 -219.9858123 114.98821731 -185.625 79.3125 C-184.99287598 78.65314453 -184.36075195 77.99378906 -183.70947266 77.31445312 C-174.56502521 67.82619695 -165.26765991 59.0862956 -154.625 51.3125 C-153.47394983 50.45443848 -152.32290823 49.59636549 -151.171875 48.73828125 C-142.98224019 42.70072604 -134.47961724 37.31792698 -125.625 32.3125 C-124.91778809 31.9103125 -124.21057617 31.508125 -123.48193359 31.09375 C-100.34654164 18.0683259 -75.17537591 9.31948539 -49.1875 4 C-48.46860596 3.85264404 -47.74971191 3.70528809 -47.0090332 3.5534668 C-31.36274391 0.57960912 -15.88931954 -0.06050362 0 0 Z M-98.625 31.3125 C-99.36153809 31.63331543 -100.09807617 31.95413086 -100.85693359 32.28466797 C-124.29076364 42.59094703 -145.22734639 56.76815635 -164.11328125 74.0234375 C-165.8049032 75.56510229 -167.51105651 77.09095444 -169.23046875 78.6015625 C-174.47208892 83.2167258 -179.14750819 87.96361227 -183.625 93.3125 C-184.42292969 94.21097656 -185.22085938 95.10945313 -186.04296875 96.03515625 C-227.54707949 143.08435061 -248.81204481 207.46318939 -245.36328125 269.91796875 C-241.39019811 326.17082891 -220.01702248 380.21610164 -181.22265625 421.52734375 C-178.90207802 424.01542237 -176.66241665 426.55175981 -174.4375 429.125 C-170.78179657 433.24503673 -166.83743648 436.77577858 -162.625 440.3125 C-161.72523438 441.11171875 -160.82546875 441.9109375 -159.8984375 442.734375 C-113.3428959 483.80834039 -49.52599923 505.25121976 12.3203125 502.05078125 C63.57058046 498.76974058 112.05630542 481.31408682 152.375 449.3125 C153.33921875 448.55324219 154.3034375 447.79398437 155.296875 447.01171875 C169.5166008 435.40856686 183.51004767 422.14892165 194.375 407.3125 C195.05369141 406.39186768 195.05369141 406.39186768 195.74609375 405.45263672 C221.70563071 370.06169656 238.81780825 330.01963307 244.375 286.3125 C244.46232895 285.63147217 244.5496579 284.95044434 244.63963318 284.2487793 C245.28129927 278.90879875 245.54768984 273.64942117 245.578125 268.2734375 C245.58871445 267.02079353 245.58871445 267.02079353 245.59951782 265.74284363 C245.77613453 239.39279453 245.77613453 239.39279453 242.375 213.3125 C242.17632324 212.29269043 241.97764648 211.27288086 241.77294922 210.22216797 C233.37463556 168.25576314 215.40191765 129.78649315 187.375 97.3125 C186.71757812 96.54421875 186.06015625 95.7759375 185.3828125 94.984375 C174.14618049 82.17885475 162.11900045 70.3864724 148.375 60.3125 C147.52107666 59.67538086 147.52107666 59.67538086 146.64990234 59.02539062 C133.08067425 48.91063475 118.71648273 40.45178122 103.375 33.3125 C102.66956055 32.9839502 101.96412109 32.65540039 101.23730469 32.31689453 C81.26529407 23.16193933 60.05552636 16.81403299 38.375 13.3125 C37.08464844 13.09980469 35.79429687 12.88710937 34.46484375 12.66796875 C-10.61728588 6.18770399 -57.032089 13.02084036 -98.625 31.3125 Z " fill="#FF3E5B" transform="translate(255.625,-0.3125)"/>
<path d="M0 0 C13.57003217 9.85857038 21.04963645 24.67005725 24.28515625 40.84765625 C25.89739808 59.22721313 21.73117722 75.44985393 10.41015625 90.22265625 C-1.80755194 104.30724684 -16.99412501 110.90035764 -35.3125 112.6953125 C-51.23900531 113.23479648 -66.42435777 107.68685439 -78.40234375 97.41015625 C-79.64177734 96.47236328 -79.64177734 96.47236328 -80.90625 95.515625 C-92.61505171 85.63918662 -98.64575569 69.95890406 -100.21484375 55.09765625 C-101.19002383 37.97105602 -95.90312904 21.73253839 -84.99609375 8.48828125 C-62.01584548 -15.97892427 -27.44487536 -18.16270613 0 0 Z " fill="#FF3E5B" transform="translate(255.40234375,102.58984375)"/>
</svg>
