<?xml version="1.0" encoding="UTF-8"?>
<svg version="1.1" xmlns="http://www.w3.org/2000/svg" width="512" height="512">
<path d="M0 0 C1.21055749 -0.00525911 1.21055749 -0.00525911 2.44557068 -0.01062447 C5.16094171 -0.0199587 7.87609923 -0.01500994 10.5914793 -0.01015663 C12.55349979 -0.01389187 14.5155188 -0.01849288 16.47753543 -0.02388728 C21.8779599 -0.03614829 27.27832256 -0.03585316 32.67875779 -0.03349853 C38.49960962 -0.03309114 44.32044143 -0.04412198 50.14128399 -0.05361366 C61.54870178 -0.07024155 72.95609891 -0.07572401 84.36352781 -0.07683842 C93.63393895 -0.07778803 102.90434326 -0.08189397 112.17475224 -0.08823967 C114.84250329 -0.09002867 117.51025434 -0.09181437 120.1780054 -0.09358943 C120.84120265 -0.09403152 121.5043999 -0.09447362 122.18769404 -0.09492911 C140.84428817 -0.1072389 159.50087997 -0.1151301 178.15747833 -0.11424255 C178.86098799 -0.1142114 179.56449764 -0.11418024 180.28932578 -0.11414814 C183.8550654 -0.11398192 187.42080502 -0.11378384 190.98654465 -0.11357872 C192.04881165 -0.11351889 192.04881165 -0.11351889 193.1325386 -0.11345784 C194.56464739 -0.11337697 195.99675618 -0.11329337 197.42886498 -0.11320706 C219.71101638 -0.1119815 241.99310691 -0.12699502 264.2752409 -0.15435219 C289.30489925 -0.18506994 314.33451761 -0.20228487 339.364196 -0.20042574 C352.61847959 -0.19968441 365.87269745 -0.20528457 379.12696552 -0.22678185 C390.41121235 -0.2449663 401.69535942 -0.24936347 412.97961453 -0.235763 C418.73854298 -0.2292196 424.49727991 -0.2291657 430.2561903 -0.2464695 C435.52714831 -0.26214447 440.79776204 -0.25939362 446.06871136 -0.24190123 C447.97649933 -0.23881904 449.88431263 -0.24250938 451.79207072 -0.25362138 C454.38478261 -0.26772392 456.97628378 -0.2571712 459.56895447 -0.24050903 C460.31017755 -0.25044539 461.05140063 -0.26038175 461.81508502 -0.27061921 C468.39601421 -0.18116403 473.51878191 2.07942528 478.43417645 6.44086266 C479.38163738 7.55654625 479.38163738 7.55654625 480.34823895 8.69476891 C480.99534832 9.43597984 481.6424577 10.17719078 482.30917645 10.94086266 C485.55646046 15.46114299 486.22373815 19.26792746 486.23050785 24.78476238 C486.23401393 25.42971683 486.23752 26.07467128 486.24113232 26.73916981 C486.25044603 28.90319185 486.24552318 31.06694477 486.24066448 33.23097801 C486.24440076 34.79701812 486.24900219 36.36305636 486.25439513 37.92909163 C486.26664332 42.23496938 486.26636252 46.54076953 486.26400638 50.84666073 C486.26359867 55.48958991 486.27463295 60.13249406 486.28412151 64.77541161 C486.30074244 73.87273729 486.30623155 82.97003706 486.30734627 92.06737665 C486.30829622 99.46135804 486.31240388 106.85533086 486.31874752 114.24930954 C486.33636289 135.20750863 486.34558593 156.16568723 486.34408657 177.12389378 C486.3439667 178.81908805 486.3439667 178.81908805 486.34384441 180.54852867 C486.34376265 181.68003629 486.34368089 182.81154392 486.34359665 183.97733965 C486.34278366 202.31718809 486.36192387 220.65695443 486.39012115 238.99677912 C486.4188381 257.8229885 486.4326621 276.64915782 486.43093359 295.47538966 C486.43026928 306.04689639 486.43577959 316.61831705 486.4572897 327.18980408 C486.47548584 336.19035579 486.47986171 345.19078241 486.46627085 354.19134454 C486.45973329 358.78373724 486.45965237 363.37588983 486.47697735 367.96825981 C486.49267836 372.17340385 486.489875 376.3781168 486.47240908 380.58325013 C486.46933262 382.10342328 486.47299593 383.62362838 486.48412924 385.14376388 C486.54793484 394.47471797 486.25454985 401.4321779 479.7896452 408.71820641 C478.6739616 409.66566734 478.6739616 409.66566734 477.53573895 410.63226891 C476.79452801 411.27937828 476.05331707 411.92648766 475.2896452 412.59320641 C470.35657911 416.13702791 465.88985179 416.54718889 459.94647789 416.51453781 C459.13943957 416.51804389 458.33240124 416.52154996 457.50090721 416.52516228 C454.78553618 416.53449651 452.07037866 416.52954775 449.35499859 416.52469444 C447.3929781 416.52842968 445.43095909 416.53303069 443.46894246 416.53842509 C438.06851799 416.5506861 432.66815533 416.55039097 427.2677201 416.54803634 C421.44686827 416.54762895 415.62603646 416.55865979 409.8051939 416.56815147 C398.39777611 416.58477936 386.99037898 416.59026182 375.58295008 416.59137623 C366.31253894 416.59232584 357.04213463 416.59643178 347.77172565 416.60277748 C345.1039746 416.60456648 342.43622355 416.60635218 339.76847249 416.60812724 C339.10527524 416.60856933 338.44207799 416.60901143 337.75878385 416.60946692 C319.10218972 416.62177671 300.44559792 416.62966791 281.78899956 416.62878036 C281.0854899 416.62874921 280.38198025 416.62871805 279.65715211 416.62868595 C276.09141249 416.62851973 272.52567287 416.62832165 268.95993324 416.62811653 C267.89766624 416.6280567 267.89766624 416.6280567 266.81393929 416.62799565 C265.3818305 416.62791478 263.94972171 416.62783118 262.51761291 416.62774487 C240.23546151 416.62651931 217.95337098 416.64153283 195.67123699 416.66889 C170.64157864 416.69960775 145.61196028 416.71682268 120.58228189 416.71496356 C107.3279983 416.71422223 94.07378044 416.71982238 80.81951237 416.74131966 C69.53526554 416.75950411 58.25111847 416.76390128 46.96686336 416.75030081 C41.20793491 416.74375742 35.44919798 416.74370351 29.69028759 416.76100731 C24.41932958 416.77668228 19.14871585 416.77393143 13.87776653 416.75643905 C11.96997856 416.75335685 10.06216526 416.75704719 8.15440717 416.7681592 C5.56169528 416.78226174 2.97019411 416.77170902 0.37752342 416.75504684 C-0.7343112 416.76995138 -0.7343112 416.76995138 -1.86860713 416.78515702 C-8.44953632 416.69570184 -13.57230402 414.43511253 -18.48769855 410.07367516 C-19.43515949 408.95799156 -19.43515949 408.95799156 -20.40176105 407.81976891 C-21.04887043 407.07855797 -21.6959798 406.33734703 -22.36269855 405.57367516 C-25.60998257 401.05339482 -26.27726026 397.24661035 -26.28402996 391.72977543 C-26.28753604 391.08482098 -26.29104211 390.43986653 -26.29465443 389.77536801 C-26.30396814 387.61134596 -26.29904529 385.44759304 -26.29418659 383.2835598 C-26.29792287 381.71751969 -26.3025243 380.15148145 -26.30791724 378.58544618 C-26.32016543 374.27956843 -26.31988463 369.97376828 -26.31752849 365.66787708 C-26.31712078 361.0249479 -26.32815506 356.38204376 -26.33764362 351.73912621 C-26.35426455 342.64180052 -26.35975366 333.54450075 -26.36086838 324.44716116 C-26.36181833 317.05317977 -26.36592599 309.65920695 -26.37226963 302.26522827 C-26.389885 281.30702918 -26.39910804 260.34885058 -26.39760868 239.39064404 C-26.39752877 238.26051452 -26.39744886 237.130385 -26.39736652 235.96600914 C-26.39728476 234.83450152 -26.397203 233.7029939 -26.39711876 232.53719816 C-26.39630577 214.19734972 -26.41544598 195.85758338 -26.44364326 177.51775869 C-26.47236021 158.69154931 -26.48618421 139.86537999 -26.4844557 121.03914815 C-26.48379139 110.46764142 -26.4893017 99.89622076 -26.51081181 89.32473373 C-26.52900795 80.32418202 -26.53338382 71.3237554 -26.51979296 62.32319327 C-26.5132554 57.73080057 -26.51317448 53.13864798 -26.53049946 48.546278 C-26.54620047 44.34113397 -26.54339711 40.13642101 -26.52593119 35.93128768 C-26.52285473 34.41111453 -26.52651804 32.89090943 -26.53765135 31.37077393 C-26.60145695 22.03981984 -26.30807196 15.08235991 -19.8431673 7.79633141 C-18.72748371 6.84887047 -18.72748371 6.84887047 -17.58926105 5.88226891 C-16.84805012 5.23515953 -16.10683918 4.58805016 -15.3431673 3.92133141 C-10.41010122 0.3775099 -5.9433739 -0.03265107 0 0 Z " fill="#F0EDF0" transform="translate(26.026761054992676,47.74273109436035)"/>
<path d="M0 0 C1.21055749 -0.00525911 1.21055749 -0.00525911 2.44557068 -0.01062447 C5.16094171 -0.0199587 7.87609923 -0.01500994 10.5914793 -0.01015663 C12.55349979 -0.01389187 14.5155188 -0.01849288 16.47753543 -0.02388728 C21.8779599 -0.03614829 27.27832256 -0.03585316 32.67875779 -0.03349853 C38.49960962 -0.03309114 44.32044143 -0.04412198 50.14128399 -0.05361366 C61.54870178 -0.07024155 72.95609891 -0.07572401 84.36352781 -0.07683842 C93.63393895 -0.07778803 102.90434326 -0.08189397 112.17475224 -0.08823967 C114.84250329 -0.09002867 117.51025434 -0.09181437 120.1780054 -0.09358943 C120.84120265 -0.09403152 121.5043999 -0.09447362 122.18769404 -0.09492911 C140.84428817 -0.1072389 159.50087997 -0.1151301 178.15747833 -0.11424255 C178.86098799 -0.1142114 179.56449764 -0.11418024 180.28932578 -0.11414814 C183.8550654 -0.11398192 187.42080502 -0.11378384 190.98654465 -0.11357872 C192.04881165 -0.11351889 192.04881165 -0.11351889 193.1325386 -0.11345784 C194.56464739 -0.11337697 195.99675618 -0.11329337 197.42886498 -0.11320706 C219.71101638 -0.1119815 241.99310691 -0.12699502 264.2752409 -0.15435219 C289.30489925 -0.18506994 314.33451761 -0.20228487 339.364196 -0.20042574 C352.61847959 -0.19968441 365.87269745 -0.20528457 379.12696552 -0.22678185 C390.41121235 -0.2449663 401.69535942 -0.24936347 412.97961453 -0.235763 C418.73854298 -0.2292196 424.49727991 -0.2291657 430.2561903 -0.2464695 C435.52714831 -0.26214447 440.79776204 -0.25939362 446.06871136 -0.24190123 C447.97649933 -0.23881904 449.88431263 -0.24250938 451.79207072 -0.25362138 C454.38478261 -0.26772392 456.97628378 -0.2571712 459.56895447 -0.24050903 C460.31017755 -0.25044539 461.05140063 -0.26038175 461.81508502 -0.27061921 C468.39601421 -0.18116403 473.51878191 2.07942528 478.43417645 6.44086266 C479.38163738 7.55654625 479.38163738 7.55654625 480.34823895 8.69476891 C480.99534832 9.43597984 481.6424577 10.17719078 482.30917645 10.94086266 C492.87332416 25.64635466 485.97323895 50.11565788 485.97323895 64.25726891 C317.01323895 64.25726891 148.05323895 64.25726891 -26.02676105 64.25726891 C-26.02676105 14.765319 -26.02676105 14.765319 -19.8431673 7.79633141 C-18.72748371 6.84887047 -18.72748371 6.84887047 -17.58926105 5.88226891 C-16.84805012 5.23515953 -16.10683918 4.58805016 -15.3431673 3.92133141 C-10.41010122 0.3775099 -5.9433739 -0.03265107 0 0 Z " fill="#7BACDF" transform="translate(26.026761054992676,47.74273109436035)"/>
<path d="M0 0 C13.58180051 11.22837352 22.28099132 26.12423664 26.62304688 43.03540039 C26.84734375 43.76243164 27.07164062 44.48946289 27.30273438 45.23852539 C29.06582008 51.1798827 28.62304688 55.30978935 28.62304688 62.03540039 C2.88304687 62.36540039 -22.85695313 62.69540039 -49.37695312 63.03540039 C-48.05695313 64.35540039 -46.73695313 65.67540039 -45.37695312 67.03540039 C-45.37695312 67.69540039 -45.37695312 68.35540039 -45.37695312 69.03540039 C-44.75820312 69.28290039 -44.13945312 69.53040039 -43.50195312 69.78540039 C-40.97336686 71.27280408 -40.65856308 72.47218048 -39.37695312 75.03540039 C-38.78175369 75.32754425 -38.18655426 75.61968811 -37.57331848 75.92068481 C-34.97904005 77.23735217 -33.30731625 78.82992638 -31.23510742 80.87084961 C-30.43135178 81.65861786 -29.62759613 82.44638611 -28.79948425 83.25802612 C-27.94204117 84.11010651 -27.08459808 84.96218689 -26.20117188 85.84008789 C-25.31661819 86.7156131 -24.43206451 87.59113831 -23.52070618 88.49319458 C-21.65454964 90.34485011 -19.79118693 92.19932498 -17.93041992 94.05639648 C-15.54339925 96.43801319 -13.14061151 98.80302384 -10.73363018 101.16444206 C-8.44097358 103.42027093 -6.16599665 105.69379802 -3.88867188 107.96508789 C-3.02110764 108.81311981 -2.1535434 109.66115173 -1.25968933 110.53488159 C-0.47169449 111.32895416 0.31630035 112.12302673 1.12817383 112.94116211 C1.82892532 113.63684296 2.52967682 114.3325238 3.25166321 115.04928589 C4.62304688 117.03540039 4.62304688 117.03540039 4.48088074 119.15921021 C0.32395798 128.25092133 -15.79110921 134.48660565 -24.39941406 137.81811523 C-44.2089365 145.00772513 -65.64079035 144.12076272 -84.72119141 135.24804688 C-91.5590203 131.89931308 -97.63900518 128.07191582 -103.37695312 123.03540039 C-104.41916016 122.18848633 -104.41916016 122.18848633 -105.48242188 121.32446289 C-110.25103388 117.37000415 -113.96259794 113.19704962 -117.37695312 108.03540039 C-117.94285156 107.1962207 -118.50875 106.35704102 -119.09179688 105.49243164 C-130.51323127 87.37308823 -134.2710384 65.74377677 -130.31445312 44.72290039 C-127.12068822 32.15677867 -121.59511301 21.06155545 -113.37695312 11.03540039 C-112.56484375 9.9796582 -112.56484375 9.9796582 -111.73632812 8.90258789 C-84.22739197 -25.14973599 -32.87533301 -25.80595243 0 0 Z " fill="#91DEB6" transform="translate(179.376953125,177.964599609375)"/>
<path d="M0 0 C0.66209473 -0.00095673 1.32418945 -0.00191345 2.00634766 -0.00289917 C3.40852961 -0.00358076 4.8107147 -0.00172792 6.21289062 0.00244141 C8.36595713 0.00779004 10.51881502 0.0024958 12.671875 -0.00390625 C14.03125046 -0.00324546 15.3906258 -0.00196429 16.75 0 C18.61785156 0.00169189 18.61785156 0.00169189 20.5234375 0.00341797 C23.375 0.1328125 23.375 0.1328125 24.375 1.1328125 C24.47084998 2.67634381 24.4968807 4.22426358 24.49525452 5.77076721 C24.49731651 7.27475571 24.49731651 7.27475571 24.49942017 8.80912781 C24.49582489 9.91827042 24.49222961 11.02741302 24.48852539 12.17016602 C24.48867142 13.33098694 24.48881744 14.49180786 24.4889679 15.68780518 C24.48826817 19.54579502 24.48047298 23.40373728 24.47265625 27.26171875 C24.47079228 29.92829978 24.46931912 32.59487814 24.46836853 35.26145935 C24.46525548 41.5761013 24.45704244 47.89072601 24.44701904 54.20536035 C24.4358571 61.39266883 24.43034725 68.57997811 24.42532361 75.7672931 C24.4148598 90.5558096 24.39651464 105.34430758 24.375 120.1328125 C34.935 120.1328125 45.495 120.1328125 56.375 120.1328125 C56.36339844 116.17410156 56.35179687 112.21539062 56.33984375 108.13671875 C56.33205467 104.32088298 56.32597706 100.50504808 56.32006836 96.68920898 C56.31502617 94.02839769 56.30819264 91.36758918 56.29956055 88.70678711 C56.28748991 84.89175734 56.28177071 81.07676406 56.27734375 77.26171875 C56.27218246 76.06382217 56.26702118 74.8659256 56.26170349 73.63172913 C56.26162796 72.5306633 56.26155243 71.42959747 56.26147461 70.29516602 C56.259254 69.32031754 56.25703339 68.34546906 56.25474548 67.34107971 C56.375 65.1328125 56.375 65.1328125 57.375 64.1328125 C59.58150656 64.03268849 61.79122386 64.0020007 64 64 C64.66209473 63.99904327 65.32418945 63.99808655 66.00634766 63.99710083 C67.40852961 63.99641924 68.8107147 63.99827208 70.21289062 64.00244141 C72.36595713 64.00779004 74.51881502 64.0024958 76.671875 63.99609375 C78.03125046 63.99675454 79.3906258 63.99803571 80.75 64 C82.61785156 64.00169189 82.61785156 64.00169189 84.5234375 64.00341797 C87.375 64.1328125 87.375 64.1328125 88.375 65.1328125 C88.4685919 66.85146659 88.49244611 68.57396994 88.48852539 70.29516602 C88.48844986 71.39623184 88.48837433 72.49729767 88.48829651 73.63172913 C88.48313522 74.8296257 88.47797394 76.02752228 88.47265625 77.26171875 C88.47053383 79.09077003 88.47053383 79.09077003 88.46836853 80.95677185 C88.46274967 84.8696432 88.45019396 88.78245831 88.4375 92.6953125 C88.43248743 95.34049397 88.4279241 97.98567633 88.42382812 100.63085938 C88.41277411 107.13152976 88.39601764 113.63216711 88.375 120.1328125 C89.88066528 120.1013916 89.88066528 120.1013916 91.41674805 120.06933594 C95.15325566 119.99674556 98.88970137 119.95094439 102.62670898 119.91308594 C104.24172458 119.89301358 105.85666789 119.8657492 107.47143555 119.83105469 C109.79754501 119.78234035 112.12269093 119.75980096 114.44921875 119.7421875 C115.16712082 119.72154236 115.88502289 119.70089722 116.62467957 119.67962646 C120.22681059 119.67802681 122.22699201 120.03979089 125.30395508 121.97363281 C127.96552028 124.74846279 128.45326086 126.29803055 128.375 130.1328125 C126.60460551 132.87997637 125.31208156 134.66427172 122.375 136.1328125 C119.41325129 136.23762154 116.47465837 136.28060561 113.51237488 136.27998352 C112.58314392 136.28366021 111.65391296 136.2873369 110.69652349 136.291125 C107.56354597 136.30219254 104.43060159 136.30601085 101.29760742 136.30981445 C99.05914707 136.31607673 96.82068777 136.32272331 94.58222961 136.32972717 C88.48716901 136.34715752 82.39211626 136.35769421 76.29703689 136.3659327 C72.49217005 136.37107793 68.68730567 136.37715383 64.88244057 136.38344383 C54.35072123 136.40031563 43.81900303 136.41495109 33.28727245 136.42219257 C30.55373826 136.42410251 27.82020408 136.42602284 25.08666992 136.42797852 C24.0675435 136.42870413 24.0675435 136.42870413 23.02782867 136.4294444 C12.01878709 136.43774681 1.00985409 136.46308712 -9.99914006 136.49555919 C-21.298221 136.5286156 -32.59724877 136.54630713 -43.89638442 136.54983681 C-50.24193199 136.55219191 -56.58730795 136.56121214 -62.93280983 136.58629799 C-68.90079699 136.60950988 -74.86849871 136.61383963 -80.83651924 136.60353661 C-83.02912086 136.60303948 -85.2217362 136.60941172 -87.4142952 136.62309265 C-90.40368372 136.64070456 -93.39203593 136.633758 -96.38142395 136.62055969 C-97.6882356 136.63701356 -97.6882356 136.63701356 -99.02144748 136.65379983 C-103.02700651 136.61099285 -105.13017537 136.43193758 -108.62850475 134.31717205 C-110.625 132.1328125 -110.625 132.1328125 -111.8125 128.6953125 C-111.625 125.1328125 -111.625 125.1328125 -109.21810913 122.44563293 C-105.06438452 119.24385279 -101.01723087 119.4633407 -95.94775391 119.56518555 C-94.51266479 119.56409035 -94.51266479 119.56409035 -93.04858398 119.56297302 C-89.89899199 119.56644525 -86.75089485 119.60529016 -83.6015625 119.64453125 C-81.41296191 119.65386065 -79.22435086 119.66097616 -77.03573608 119.66596985 C-71.2848409 119.68502946 -65.53458051 119.73412218 -59.78393555 119.78948975 C-53.91203396 119.84070409 -48.04002947 119.86348861 -42.16796875 119.88867188 C-30.65336745 119.94224123 -19.13923658 120.02754215 -7.625 120.1328125 C-7.62592179 119.52044015 -7.62684359 118.9080678 -7.62779331 118.27713871 C-7.64984895 103.39729762 -7.66641175 88.5174581 -7.67681217 73.63760471 C-7.68197503 66.44190955 -7.68901753 59.24622528 -7.70043945 52.05053711 C-7.7103866 45.78096556 -7.7168535 39.51140189 -7.71908849 33.24182266 C-7.72039555 29.92015629 -7.72399997 26.59851784 -7.73073006 23.27685738 C-7.73793628 19.57461303 -7.73899112 15.87241619 -7.73852539 12.17016602 C-7.74212067 11.06102341 -7.74571594 9.9518808 -7.74942017 8.80912781 C-7.7480455 7.80646881 -7.74667084 6.80380981 -7.74525452 5.77076721 C-7.74617631 4.89414208 -7.7470981 4.01751696 -7.74804783 3.11432743 C-7.471738 -1.33525988 -3.63707019 0.00329445 0 0 Z " fill="#938593" transform="translate(343.625,191.8671875)"/>
<path d="M0 0 C22.50458895 -0.0676668 45.0090958 -0.12295249 67.51376057 -0.15543652 C77.96257984 -0.17091892 88.41133153 -0.19203462 98.86010742 -0.22631836 C107.96508315 -0.25617873 117.07000994 -0.27556501 126.17503327 -0.28226548 C130.99805552 -0.28618345 135.82093772 -0.29541963 140.64391518 -0.31719017 C145.18040487 -0.33750227 149.71669639 -0.34384454 154.25322723 -0.33932304 C155.92097487 -0.34015062 157.5887289 -0.34614765 159.2564373 -0.35761642 C161.52836669 -0.37247834 163.79954164 -0.36897719 166.07148743 -0.36076355 C167.34448354 -0.36352893 168.61747965 -0.36629431 169.9290514 -0.36914349 C173 0 173 0 174.90877056 1.35506725 C176.55775374 3.84076488 176.38895077 5.91875403 176.3984375 8.875 C176.40230469 10.02484375 176.40617188 11.1746875 176.41015625 12.359375 C176.39275391 14.16148437 176.39275391 14.16148437 176.375 16 C176.38660156 17.20140625 176.39820313 18.4028125 176.41015625 19.640625 C176.40628906 20.79046875 176.40242187 21.9403125 176.3984375 23.125 C176.39505371 24.17945313 176.39166992 25.23390625 176.38818359 26.3203125 C176 29 176 29 174.90877056 30.64493275 C172.01176969 32.70156076 169.5943855 32.36841648 166.07148743 32.36076355 C165.36246959 32.36332682 164.65345176 32.3658901 163.92294854 32.36853105 C161.54125764 32.37348226 159.16019719 32.35695458 156.77856445 32.34057617 C155.07371028 32.33973019 153.368855 32.34020448 151.66400146 32.34190369 C147.02993409 32.34276618 142.39609858 32.32509939 137.7620852 32.30418181 C132.92141402 32.28545728 128.08073782 32.28366791 123.24003601 32.28010559 C114.07089059 32.27077269 104.90185218 32.24614208 95.73275393 32.21605712 C85.2951713 32.18255182 74.85758362 32.16603685 64.41996062 32.15097082 C42.94656737 32.11959358 21.47332087 32.06456598 0 32 C0 21.44 0 10.88 0 0 Z " fill="#91DEB6" transform="translate(288,352)"/>
<path d="M0 0 C7.53264836 0 12.91159342 0.0090214 19.8125 2.0625 C20.58166748 2.28655518 21.35083496 2.51061035 22.14331055 2.74145508 C44.48436967 9.56203948 61.34895883 23.88723619 72.3125 44.47265625 C74.87389582 49.826685 76.5275181 55.2650705 78 61 C78.22429687 61.72703125 78.44859375 62.4540625 78.6796875 63.203125 C80.44277321 69.14448231 80 73.27438896 80 80 C53.6 80 27.2 80 0 80 C0 53.6 0 27.2 0 0 Z " fill="#7BACDF" transform="translate(128,160)"/>
<path d="M0 0 C0.66209473 -0.00095673 1.32418945 -0.00191345 2.00634766 -0.00289917 C3.40852961 -0.00358076 4.8107147 -0.00172792 6.21289062 0.00244141 C8.36595713 0.00779004 10.51881502 0.0024958 12.671875 -0.00390625 C14.03125046 -0.00324546 15.3906258 -0.00196429 16.75 0 C18.61785156 0.00169189 18.61785156 0.00169189 20.5234375 0.00341797 C23.375 0.1328125 23.375 0.1328125 24.375 1.1328125 C24.47084998 2.67634381 24.4968807 4.22426358 24.49525452 5.77076721 C24.49662918 6.77342621 24.49800385 7.77608521 24.49942017 8.80912781 C24.49402725 10.47284172 24.49402725 10.47284172 24.48852539 12.17016602 C24.48867142 13.33098694 24.48881744 14.49180786 24.4889679 15.68780518 C24.48826817 19.54579502 24.48047298 23.40373728 24.47265625 27.26171875 C24.47079228 29.92829978 24.46931912 32.59487814 24.46836853 35.26145935 C24.46525548 41.5761013 24.45704244 47.89072601 24.44701904 54.20536035 C24.4358571 61.39266883 24.43034725 68.57997811 24.42532361 75.7672931 C24.4148598 90.5558096 24.39651464 105.34430758 24.375 120.1328125 C13.815 120.1328125 3.255 120.1328125 -7.625 120.1328125 C-7.64754742 104.6344112 -7.66597941 89.13601797 -7.67681217 73.63760471 C-7.68197503 66.44190955 -7.68901753 59.24622528 -7.70043945 52.05053711 C-7.7103866 45.78096556 -7.7168535 39.51140189 -7.71908849 33.24182266 C-7.72039555 29.92015629 -7.72399997 26.59851784 -7.73073006 23.27685738 C-7.73793628 19.57461303 -7.73899112 15.87241619 -7.73852539 12.17016602 C-7.74212067 11.06102341 -7.74571594 9.9518808 -7.74942017 8.80912781 C-7.7480455 7.80646881 -7.74667084 6.80380981 -7.74525452 5.77076721 C-7.74617631 4.89414208 -7.7470981 4.01751696 -7.74804783 3.11432743 C-7.471738 -1.33525988 -3.63707019 0.00329445 0 0 Z " fill="#91DEB6" transform="translate(343.625,191.8671875)"/>
<path d="M0 0 C26.4 0 52.8 0 80 0 C80 10.56 80 21.12 80 32 C53.6 32 27.2 32 0 32 C0 21.44 0 10.88 0 0 Z " fill="#7BACDF" transform="translate(288,352)"/>
<path d="M0 0 C26.07 0 52.14 0 79 0 C79 7.53393589 78.98983585 12.91068055 76.9375 19.8125 C76.60468018 20.96190063 76.60468018 20.96190063 76.26513672 22.13452148 C72.84905954 33.37161747 67.59960761 43.00838505 60 52 C58.99187968 53.32720428 57.98947819 54.6588398 57 56 C53.67778771 54.55237698 51.50009181 52.74361511 48.95336914 50.18041992 C48.16897964 49.39587936 47.38459015 48.61133881 46.57643127 47.80302429 C45.73781052 46.95408096 44.89918976 46.10513763 44.03515625 45.23046875 C43.16483261 44.35731522 42.29450897 43.48416168 41.39781189 42.58454895 C39.08635851 40.26379895 36.7792973 37.93879652 34.4743042 35.6116333 C32.14075223 33.25770272 29.80152127 30.90943017 27.46289062 28.56054688 C24.03109967 25.11242184 20.60192352 21.66174347 17.17602539 18.20776367 C11.30694302 12.29103181 11.30694302 12.29103181 5.375 6.4375 C3 4 3 4 0 0 Z " fill="#FEE076" transform="translate(129,240)"/>
<path d="M0 0 C0.66209473 -0.00095673 1.32418945 -0.00191345 2.00634766 -0.00289917 C3.40852961 -0.00358076 4.8107147 -0.00172792 6.21289062 0.00244141 C8.36595713 0.00779004 10.51881502 0.0024958 12.671875 -0.00390625 C14.03125046 -0.00324546 15.3906258 -0.00196429 16.75 0 C18.61785156 0.00169189 18.61785156 0.00169189 20.5234375 0.00341797 C23.375 0.1328125 23.375 0.1328125 24.375 1.1328125 C24.46932985 3.34149081 24.49242431 5.55322771 24.48852539 7.76391602 C24.48867142 8.45656555 24.48881744 9.14921509 24.4889679 9.862854 C24.48826874 12.16250696 24.48047628 14.46207987 24.47265625 16.76171875 C24.47079208 18.35212662 24.46936817 19.94253507 24.46836853 21.53294373 C24.46454329 25.7267718 24.45471295 29.92056545 24.44366455 34.11437988 C24.43165597 39.14204955 24.42704822 44.16973069 24.42121124 49.19741058 C24.41150119 56.84256852 24.39234471 64.48765088 24.375 72.1328125 C13.815 72.1328125 3.255 72.1328125 -7.625 72.1328125 C-7.66510881 54.45374065 -7.66510881 54.45374065 -7.67382812 46.94335938 C-7.67981616 41.809804 -7.68691538 36.67626638 -7.70043945 31.54272461 C-7.71126975 27.4060185 -7.71727714 23.26933142 -7.71987724 19.13261223 C-7.72173124 17.55088946 -7.72535136 15.96916779 -7.73073006 14.38745308 C-7.7379424 12.17958412 -7.73899086 9.97179477 -7.73852539 7.76391602 C-7.740746 6.50482925 -7.74296661 5.24574249 -7.74525452 3.94850159 C-7.52058911 -1.31190728 -4.63009795 0.00419393 0 0 Z " fill="#FEE177" transform="translate(279.625,239.8671875)"/>
<path d="M0 0 C1.12425888 -0.0071553 2.24851776 -0.01431061 3.40684509 -0.02168274 C7.11661624 -0.03856761 10.82517878 -0.01916773 14.53491211 0.00219727 C17.11510824 0.00136862 19.69530431 -0.00109061 22.27549744 -0.00511169 C27.67993457 -0.00796951 33.08392544 0.00620087 38.48828125 0.03417969 C44.73009349 0.06624559 50.971281 0.06620794 57.21313769 0.04896492 C63.22748097 0.03308479 69.24153416 0.03993982 75.25588799 0.05690193 C77.81117681 0.0620872 80.36648363 0.06159779 82.9217701 0.05535698 C86.49121022 0.04991135 90.05958723 0.07026067 93.62890625 0.09765625 C94.68618927 0.09113037 95.74347229 0.08460449 96.83279419 0.07788086 C101.28243746 0.13599698 103.99204047 0.18312022 107.87840271 2.48085022 C110.31741466 5.28336426 110.82552882 6.91822847 110.74975586 10.63110352 C108.97936137 13.37826738 107.68683742 15.16256273 104.74975586 16.63110352 C103.21538782 16.73187177 101.6767377 16.7705172 100.13908386 16.77827454 C99.16751846 16.78542984 98.19595306 16.79258514 97.19494629 16.79995728 C96.1253064 16.80264618 95.0556665 16.80533508 93.95361328 16.80810547 C92.26810112 16.81796227 92.26810112 16.81796227 90.54853821 16.82801819 C86.81743306 16.84778387 83.0863682 16.8594205 79.35522461 16.86938477 C78.08352228 16.87346029 76.81181995 16.87753582 75.50158119 16.88173485 C69.46649831 16.90045453 63.43143996 16.91501777 57.39633578 16.92334682 C50.43067007 16.9331189 43.46532216 16.95943709 36.49976844 16.99984771 C30.46628741 17.0336492 24.43296066 17.04549203 18.39937782 17.04955101 C15.8328975 17.05443139 13.26642093 17.06608632 10.70000267 17.084589 C7.1111031 17.10885679 3.523038 17.10803766 -0.06591797 17.10107422 C-1.12948517 17.11388428 -2.19305237 17.12669434 -3.28884888 17.13989258 C-7.73445939 17.10839388 -10.47647949 17.08041803 -14.37504578 14.8165741 C-17.05003378 11.69897987 -17.46532671 9.71767237 -17.25024414 5.63110352 C-12.20479362 -0.23311763 -7.41463759 -0.08215371 0 0 Z " fill="#948594" transform="translate(89.250244140625,391.368896484375)"/>
<path d="M0 0 C1.12425888 -0.0071553 2.24851776 -0.01431061 3.40684509 -0.02168274 C7.11661624 -0.03856761 10.82517878 -0.01916773 14.53491211 0.00219727 C17.11510824 0.00136862 19.69530431 -0.00109061 22.27549744 -0.00511169 C27.67993457 -0.00796951 33.08392544 0.00620087 38.48828125 0.03417969 C44.73009349 0.06624559 50.971281 0.06620794 57.21313769 0.04896492 C63.22748097 0.03308479 69.24153416 0.03993982 75.25588799 0.05690193 C77.81117681 0.0620872 80.36648363 0.06159779 82.9217701 0.05535698 C86.49121022 0.04991135 90.05958723 0.07026067 93.62890625 0.09765625 C94.68618927 0.09113037 95.74347229 0.08460449 96.83279419 0.07788086 C101.28243746 0.13599698 103.99204047 0.18312022 107.87840271 2.48085022 C110.31741466 5.28336426 110.82552882 6.91822847 110.74975586 10.63110352 C108.97936137 13.37826738 107.68683742 15.16256273 104.74975586 16.63110352 C103.21538782 16.73187177 101.6767377 16.7705172 100.13908386 16.77827454 C99.16751846 16.78542984 98.19595306 16.79258514 97.19494629 16.79995728 C96.1253064 16.80264618 95.0556665 16.80533508 93.95361328 16.80810547 C92.26810112 16.81796227 92.26810112 16.81796227 90.54853821 16.82801819 C86.81743306 16.84778387 83.0863682 16.8594205 79.35522461 16.86938477 C78.08352228 16.87346029 76.81181995 16.87753582 75.50158119 16.88173485 C69.46649831 16.90045453 63.43143996 16.91501777 57.39633578 16.92334682 C50.43067007 16.9331189 43.46532216 16.95943709 36.49976844 16.99984771 C30.46628741 17.0336492 24.43296066 17.04549203 18.39937782 17.04955101 C15.8328975 17.05443139 13.26642093 17.06608632 10.70000267 17.084589 C7.1111031 17.10885679 3.523038 17.10803766 -0.06591797 17.10107422 C-1.12948517 17.11388428 -2.19305237 17.12669434 -3.28884888 17.13989258 C-7.73445939 17.10839388 -10.47647949 17.08041803 -14.37504578 14.8165741 C-17.05003378 11.69897987 -17.46532671 9.71767237 -17.25024414 5.63110352 C-12.20479362 -0.23311763 -7.41463759 -0.08215371 0 0 Z " fill="#948594" transform="translate(89.250244140625,359.368896484375)"/>
<path d="M0 0 C4.25314786 1.67642324 7.12101814 4.7175909 10.3125 7.875 C10.87517578 8.40480469 11.43785156 8.93460937 12.01757812 9.48046875 C13.61328125 11.0546875 13.61328125 11.0546875 16 14 C15.6781308 17.12391526 15.11085268 17.89497145 12.76953125 20.11328125 C-7.15653263 34.93279772 -28.39744098 41.83744571 -53.27539062 38.71435547 C-67.54041853 36.39941673 -81.19969623 29.50943081 -92 20 C-92.72960937 19.38898438 -93.45921875 18.77796875 -94.2109375 18.1484375 C-97.5729089 15.29622349 -100.43656864 12.60924845 -103 9 C-102.67 8.34 -102.34 7.68 -102 7 C-101.05640625 7.58007812 -101.05640625 7.58007812 -100.09375 8.171875 C-80.92406556 19.8353577 -58.71626389 25.08572634 -36.3125 19.8125 C-34.52592133 19.25661807 -32.75353917 18.65266256 -31 18 C-30.02417969 17.64808594 -29.04835938 17.29617188 -28.04296875 16.93359375 C-17.67706385 12.90166925 -8.15412178 7.59815894 0 0 Z " fill="#70D5A1" transform="translate(168,281)"/>
<path d="M0 0 C0.66209473 -0.00095673 1.32418945 -0.00191345 2.00634766 -0.00289917 C3.40852961 -0.00358076 4.8107147 -0.00172792 6.21289062 0.00244141 C8.36595713 0.00779004 10.51881502 0.0024958 12.671875 -0.00390625 C14.03125046 -0.00324546 15.3906258 -0.00196429 16.75 0 C18.61785156 0.00169189 18.61785156 0.00169189 20.5234375 0.00341797 C23.375 0.1328125 23.375 0.1328125 24.375 1.1328125 C24.4685919 2.85146659 24.49244611 4.57396994 24.48852539 6.29516602 C24.48844986 7.39623184 24.48837433 8.49729767 24.48829651 9.63172913 C24.48313522 10.8296257 24.47797394 12.02752228 24.47265625 13.26171875 C24.4712413 14.48108627 24.46982635 15.7004538 24.46836853 16.95677185 C24.46274967 20.8696432 24.45019396 24.78245831 24.4375 28.6953125 C24.43248743 31.34049397 24.4279241 33.98567633 24.42382812 36.63085938 C24.41362296 43.13154976 24.39405121 49.63211783 24.375 56.1328125 C13.815 56.1328125 3.255 56.1328125 -7.625 56.1328125 C-7.64790171 48.31824176 -7.66783103 40.5037865 -7.67993164 32.68920898 C-7.68497383 30.02839769 -7.69180736 27.36758918 -7.70043945 24.70678711 C-7.71251009 20.89175734 -7.71822929 17.07676406 -7.72265625 13.26171875 C-7.72781754 12.06382217 -7.73297882 10.8659256 -7.73829651 9.63172913 C-7.73837204 8.5306633 -7.73844757 7.42959747 -7.73852539 6.29516602 C-7.740746 5.32031754 -7.74296661 4.34546906 -7.74525452 3.34107971 C-7.49063517 -1.33456635 -3.9174062 0.00354838 0 0 Z " fill="#7BACDF" transform="translate(407.625,255.8671875)"/>
<path d="M0 0 C0.90070724 0.00022659 1.80141449 0.00045319 2.72941589 0.00068665 C4.18267021 0.02391243 4.18267021 0.02391243 5.6652832 0.04760742 C7.15714897 0.05397469 7.15714897 0.05397469 8.67915344 0.06047058 C11.8583982 0.07727465 15.03701102 0.11493041 18.21606445 0.15307617 C20.37035218 0.16812076 22.52464983 0.18180955 24.67895508 0.1940918 C29.96259803 0.22463309 35.2448732 0.28335208 40.52856445 0.34057617 C40.52856445 10.90057617 40.52856445 21.46057617 40.52856445 32.34057617 C34.17440007 32.40939384 27.8215251 32.46914396 21.46728516 32.50537109 C19.30513125 32.52047061 17.14300802 32.54095188 14.98095703 32.56689453 C11.87565545 32.60322635 8.77075831 32.62029079 5.6652832 32.63354492 C4.69644699 32.64902878 3.72761078 32.66451263 2.72941589 32.6804657 C1.37835503 32.68080559 1.37835503 32.68080559 0 32.68115234 C-1.1891375 32.6911451 -1.1891375 32.6911451 -2.40229797 32.70133972 C-5.01315516 32.24612489 -5.8888275 31.43351271 -7.47143555 29.34057617 C-7.85961914 26.66088867 -7.85961914 26.66088867 -7.86987305 23.46557617 C-7.87374023 22.31573242 -7.87760742 21.16588867 -7.8815918 19.98120117 C-7.86999023 18.77979492 -7.85838867 17.57838867 -7.84643555 16.34057617 C-7.85803711 15.13916992 -7.86963867 13.93776367 -7.8815918 12.69995117 C-7.87772461 11.55010742 -7.87385742 10.40026367 -7.86987305 9.21557617 C-7.86648926 8.16112305 -7.86310547 7.10666992 -7.85961914 6.02026367 C-7.15470842 1.15416297 -4.67337358 -0.03927205 0 0 Z " fill="#FEE177" transform="translate(247.471435546875,351.659423828125)"/>
<path d="M0 0 C8.27634047 2.93120392 14.2752433 7.67718767 18.14949036 15.62568665 C19.70376677 19.96466065 19.48817017 24.28472661 19.390625 28.84375 C19.38496521 29.85344849 19.37930542 30.86314697 19.37347412 31.90344238 C19.351228 35.10279377 19.30105313 38.30099175 19.25 41.5 C19.22991982 43.67967123 19.21167172 45.85936016 19.1953125 48.0390625 C19.15481702 53.3601681 19.0765028 58.67880544 19 64 C12.4 64 5.8 64 -1 64 C-1.02255425 55.8030903 -1.04091696 47.60620455 -1.05181217 39.40927219 C-1.0570402 35.60348423 -1.06413638 31.79771852 -1.07543945 27.99194336 C-1.0862712 24.32207456 -1.09227744 20.65222722 -1.09487724 16.98234367 C-1.09673097 15.57925008 -1.1003506 14.17615771 -1.10573006 12.7730732 C-1.11294419 10.8143032 -1.11340809 8.8555118 -1.11352539 6.89672852 C-1.115746 5.77976089 -1.11796661 4.66279327 -1.12025452 3.51197815 C-1 1 -1 1 0 0 Z " fill="#5F99D7" transform="translate(493,48)"/>
<path d="M0 0 C1.58206057 0.00667536 3.16410534 0.0186375 4.74609375 0.03515625 C5.55240234 0.03966797 6.35871094 0.04417969 7.18945312 0.04882812 C9.18753131 0.06065107 11.18557158 0.07858711 13.18359375 0.09765625 C14.84255732 16.83475534 7.52838748 35.12498084 -2.56640625 48.22265625 C-3.64515073 49.51815779 -4.72818381 50.81010594 -5.81640625 52.09765625 C-6.82452657 53.42486053 -7.82692806 54.75649605 -8.81640625 56.09765625 C-11.74870818 54.77644797 -13.80305524 53.35127428 -16.05078125 51.05859375 C-16.62441406 50.47851562 -17.19804687 49.8984375 -17.7890625 49.30078125 C-18.37558594 48.6975 -18.96210938 48.09421875 -19.56640625 47.47265625 C-20.16839844 46.86164063 -20.77039063 46.250625 -21.390625 45.62109375 C-22.8704593 44.11777001 -24.34405301 42.60830769 -25.81640625 41.09765625 C-25.42775391 40.59685547 -25.03910156 40.09605469 -24.63867188 39.58007812 C-15.98075443 28.35775636 -9.12318668 16.7400911 -5.39453125 2.99609375 C-4.3406319 -0.46468384 -3.98306503 0.1019208 0 0 Z " fill="#FED15C" transform="translate(194.81640625,239.90234375)"/>
<path d="M0 0 C0.77633789 -0.00478363 1.55267578 -0.00956726 2.35253906 -0.01449585 C3.98634886 -0.0178832 5.62022751 -0.00876238 7.25390625 0.01220703 C9.743736 0.03899511 12.22905916 0.01242568 14.71875 -0.01953125 C16.31250987 -0.01622694 17.90626696 -0.00982025 19.5 0 C20.60649902 -0.01518173 20.60649902 -0.01518173 21.73535156 -0.03067017 C25.61069837 0.05646946 28.22180399 0.63968961 31.25390625 2.98291016 C33.75 5.6640625 33.75 5.6640625 33.9375 9.2265625 C32.51229874 13.35214509 31.43252995 14.38451769 27.75 16.6640625 C24.88685407 17.05475955 22.41928093 17.22632087 19.5625 17.1953125 C18.78237549 17.1991394 18.00225098 17.20296631 17.19848633 17.20690918 C15.55451156 17.20962255 13.91049319 17.20230155 12.26660156 17.18554688 C9.75747977 17.16412636 7.25122078 17.18536523 4.7421875 17.2109375 C3.14061871 17.20829412 1.5390517 17.20316892 -0.0625 17.1953125 C-1.18144653 17.20745789 -1.18144653 17.20745789 -2.32299805 17.21984863 C-5.94135242 17.15506515 -8.086274 16.76541151 -11.1875 14.84570312 C-13.25 12.6640625 -13.25 12.6640625 -14.4375 9.2265625 C-14.25 5.6640625 -14.25 5.6640625 -11.75390625 2.98291016 C-8.09275836 0.15356068 -4.50772919 -0.06184835 0 0 Z " fill="#3E88D0" transform="translate(38.25,71.3359375)"/>
<path d="M0 0 C9.57679283 3.98326782 15.75897382 16.91173329 20 26 C21.61173432 30.27729494 22.86400978 34.57561702 24 39 C24.22429687 39.72703125 24.44859375 40.4540625 24.6796875 41.203125 C26.35001305 46.83189331 26.1453454 52.18618384 26 58 C20.39 58 14.78 58 9 58 C9.03480469 56.14117187 9.06960937 54.28234375 9.10546875 52.3671875 C9.33629564 35.1146262 9.1377854 21.29378091 1.20703125 5.64453125 C0 3 0 3 0 0 Z " fill="#629AD7" transform="translate(182,182)"/>
<path d="M0 0 C4.99268902 1.47931526 4.99268902 1.47931526 6.375 4 C6.76774738 7.09288558 7.01077985 9.04689172 6.375 12 C3.98554251 14.73080856 2.40166021 15.76900145 -1.125 16.5625 C-4.86496182 15.72100859 -6.33353575 14.01163873 -8.625 11 C-9.25 8 -9.25 8 -8.625 5 C-5.91953265 1.14675862 -4.77773264 0 0 0 Z " fill="#EDECF2" transform="translate(475.625,72)"/>
<path d="M0 0 C4.99268902 1.47931526 4.99268902 1.47931526 6.375 4 C6.76774738 7.09288558 7.01077985 9.04689172 6.375 12 C3.98554251 14.73080856 2.40166021 15.76900145 -1.125 16.5625 C-4.86496182 15.72100859 -6.33353575 14.01163873 -8.625 11 C-9.25 8 -9.25 8 -8.625 5 C-5.91953265 1.14675862 -4.77773264 0 0 0 Z " fill="#EDECF2" transform="translate(443.625,72)"/>
<path d="M0 0 C4.99268902 1.47931526 4.99268902 1.47931526 6.375 4 C6.76774738 7.09288558 7.01077985 9.04689172 6.375 12 C3.98554251 14.73080856 2.40166021 15.76900145 -1.125 16.5625 C-4.86496182 15.72100859 -6.33353575 14.01163873 -8.625 11 C-9.25 8 -9.25 8 -8.625 5 C-5.91953265 1.14675862 -4.77773264 0 0 0 Z " fill="#EDECF2" transform="translate(411.625,72)"/>
<path d="M0 0 C3.63897712 1.42394757 4.9791649 2.71249681 6.875 6.125 C6.95604732 10.09631876 6.3438579 11.60255834 3.6875 14.5625 C0.875 16.125 0.875 16.125 -2.1875 16.1875 C-5.87796223 14.85265196 -7.13917007 13.48563527 -9.125 10.125 C-9.75 7.625 -9.75 7.625 -9.125 5.125 C-6.15840858 1.87587607 -4.47546055 0.17901842 0 0 Z " fill="#80AEDF" transform="translate(49.125,359.875)"/>
<path d="M0 0 C3.72206393 1.34627844 5.01947413 2.61005343 6.9375 6.0625 C7.01854732 10.03381876 6.4063579 11.54005834 3.75 14.5 C0.9375 16.0625 0.9375 16.0625 -2.125 16.125 C-5.84706393 14.77872156 -7.14447413 13.51494657 -9.0625 10.0625 C-9.14354732 6.09118124 -8.5313579 4.58494166 -5.875 1.625 C-3.0625 0.0625 -3.0625 0.0625 0 0 Z " fill="#94DEB8" transform="translate(49.0625,391.9375)"/>
</svg>
