<?xml version="1.0" encoding="UTF-8"?>
<svg version="1.1" xmlns="http://www.w3.org/2000/svg" width="512" height="512">
<path d="M0 0 C1.01790619 0.00215515 2.03581238 0.0043103 3.08456421 0.00653076 C17.69363523 0.05620146 32.02575853 0.30709809 46.375 3.3125 C47.34985352 3.51117676 48.32470703 3.70985352 49.32910156 3.91455078 C97.7109774 14.03517194 141.69928269 35.9516877 177.375 70.3125 C178.3640332 71.26068604 178.3640332 71.26068604 179.37304688 72.22802734 C188.86130305 81.37247479 197.6012044 90.66984009 205.375 101.3125 C206.23306152 102.46355017 207.09113451 103.61459177 207.94921875 104.765625 C213.98736829 112.95680614 219.34595521 121.47054105 224.375 130.3125 C224.73948242 130.94430176 225.10396484 131.57610352 225.47949219 132.22705078 C247.08534998 169.97532572 256.85198095 212.74189997 256.6875 255.9375 C256.68534485 256.95540619 256.6831897 257.97331238 256.68096924 259.02206421 C256.63129854 273.63113523 256.38040191 287.96325853 253.375 302.3125 C253.07698486 303.77478027 253.07698486 303.77478027 252.77294922 305.26660156 C242.65232806 353.6484774 220.7358123 397.63678269 186.375 433.3125 C185.74287598 433.97185547 185.11075195 434.63121094 184.45947266 435.31054688 C175.31502521 444.79880305 166.01765991 453.5387044 155.375 461.3125 C154.22394983 462.17056152 153.07290823 463.02863451 151.921875 463.88671875 C143.73224019 469.92427396 135.22961724 475.30707302 126.375 480.3125 C125.66778809 480.7146875 124.96057617 481.116875 124.23193359 481.53125 C101.09654164 494.5566741 75.92537591 503.30551461 49.9375 508.625 C49.21860596 508.77235596 48.49971191 508.91971191 47.7590332 509.0715332 C33.08339502 511.86090125 18.55831162 512.66142619 3.64770508 512.62817383 C0.70811513 512.6250221 -2.2304558 512.64854926 -5.16992188 512.67382812 C-18.54306192 512.71848737 -31.43916711 511.51301542 -44.625 509.3125 C-46.33055054 509.03031616 -46.33055054 509.03031616 -48.07055664 508.74243164 C-91.33802759 500.97044532 -132.38793216 480.98345309 -165.625 452.3125 C-166.37007813 451.67828125 -167.11515625 451.0440625 -167.8828125 450.390625 C-181.38779833 438.57948485 -194.05918743 425.82889772 -204.625 411.3125 C-205.48149066 410.16255169 -206.33826433 409.01281411 -207.1953125 407.86328125 C-213.23534209 399.67315742 -218.61867614 391.16870382 -223.625 382.3125 C-224.0271875 381.60528809 -224.429375 380.89807617 -224.84375 380.16943359 C-237.8691741 357.03404164 -246.61801461 331.86287591 -251.9375 305.875 C-252.08485596 305.15610596 -252.23221191 304.43721191 -252.3840332 303.6965332 C-255.35789088 288.05024391 -255.99800362 272.57681954 -255.9375 256.6875 C-255.93534485 255.66959381 -255.9331897 254.65168762 -255.93096924 253.60293579 C-255.88129854 238.99386477 -255.63040191 224.66174147 -252.625 210.3125 C-252.42632324 209.33764648 -252.22764648 208.36279297 -252.02294922 207.35839844 C-241.90232806 158.9765226 -219.9858123 114.98821731 -185.625 79.3125 C-184.99287598 78.65314453 -184.36075195 77.99378906 -183.70947266 77.31445312 C-174.56502521 67.82619695 -165.26765991 59.0862956 -154.625 51.3125 C-153.47394983 50.45443848 -152.32290823 49.59636549 -151.171875 48.73828125 C-142.98224019 42.70072604 -134.47961724 37.31792698 -125.625 32.3125 C-124.91778809 31.9103125 -124.21057617 31.508125 -123.48193359 31.09375 C-100.34654164 18.0683259 -75.17537591 9.31948539 -49.1875 4 C-48.46860596 3.85264404 -47.74971191 3.70528809 -47.0090332 3.5534668 C-31.36274391 0.57960912 -15.88931954 -0.06050362 0 0 Z M-134.625 58.3125 C-135.61242187 59.02921875 -136.59984375 59.7459375 -137.6171875 60.484375 C-152.67491584 71.59567581 -167.78844536 83.70409395 -179.625 98.3125 C-180.59543174 99.46041586 -181.56689541 100.60745968 -182.5390625 101.75390625 C-213.83209924 139.01618892 -231.88737502 184.21297093 -237.625 232.3125 C-237.75777344 233.36050781 -237.89054687 234.40851563 -238.02734375 235.48828125 C-244.38018081 295.62267039 -223.88902743 358.881326 -186.125 405.625 C-180.23636251 412.77951824 -174.02217273 419.6120539 -167.625 426.3125 C-166.67560547 427.32376953 -166.67560547 427.32376953 -165.70703125 428.35546875 C-160.75766146 433.4929381 -155.20483875 437.88359404 -149.625 442.3125 C-148.65820312 443.09625 -147.69140625 443.88 -146.6953125 444.6875 C-111.9523955 472.26966312 -70.45513731 488.52927131 -26.625 494.3125 C-25.86388916 494.415625 -25.10277832 494.51875 -24.31860352 494.625 C-16.05880234 495.60238799 -7.74338306 495.5561702 0.5625 495.5625 C1.3604599 495.56317474 2.1584198 495.56384949 2.9805603 495.56454468 C16.31600953 495.54669892 29.24141557 494.77040105 42.375 492.3125 C43.31553223 492.14089355 44.25606445 491.96928711 45.22509766 491.79248047 C83.7812251 484.57650679 121.39173249 467.84327597 151.375 442.3125 C152.45925071 441.41229686 153.54391687 440.51259397 154.62890625 439.61328125 C166.69176648 429.5338159 177.76331576 418.78654707 187.375 406.3125 C187.8376123 405.72098145 188.30022461 405.12946289 188.77685547 404.52001953 C196.06638772 395.1809735 202.62189741 385.66951815 208.375 375.3125 C208.81199219 374.53277832 209.24898438 373.75305664 209.69921875 372.94970703 C221.87479227 351.04987469 230.5952048 327.69195686 235.625 303.125 C235.77614258 302.39079834 235.92728516 301.65659668 236.08300781 300.90014648 C238.90666335 286.17793793 239.75240133 271.58217825 239.6875 256.625 C239.68567719 255.74853821 239.68385437 254.87207642 239.68197632 253.96905518 C239.63505448 240.53962791 239.04580753 227.50881281 236.375 214.3125 C236.20871094 213.44173828 236.04242188 212.57097656 235.87109375 211.67382812 C227.4330782 168.13991827 207.63236396 127.79380947 177.375 95.3125 C176.16161781 93.92105334 174.95302197 92.52541361 173.75 91.125 C168.06159978 84.63139244 161.98521623 79.03721167 155.25 73.62890625 C153.3990034 72.13754622 151.56409151 70.62588254 149.75 69.08984375 C137.0583391 58.38125486 123.03942695 50.01930457 108.375 42.3125 C107.7243457 41.96477539 107.07369141 41.61705078 106.40332031 41.25878906 C85.11161465 30.01510112 61.00084453 23.32478797 37.375 19.3125 C35.4259375 18.96445312 35.4259375 18.96445312 33.4375 18.609375 C-23.44731412 9.72112279 -88.01447712 24.08507126 -134.625 58.3125 Z " fill="#4FC3FC" transform="translate(255.625,-0.3125)"/>
<path d="M0 0 C1.15275264 -0.00623996 2.30550528 -0.01247993 3.49318981 -0.01890898 C6.67512432 -0.03205794 9.85644336 -0.02738762 13.03836203 -0.0149641 C16.47674852 -0.00588782 19.91505387 -0.01989606 23.35342407 -0.03088379 C30.0821455 -0.04864622 36.81068819 -0.04483925 43.53941655 -0.03323323 C49.00923326 -0.02419018 54.47899998 -0.02297866 59.94882202 -0.02732849 C60.72808019 -0.02794142 61.50733836 -0.02855436 62.31021041 -0.02918586 C63.8933863 -0.0304648 65.47656218 -0.03176165 67.05973804 -0.03307623 C81.89619554 -0.04447535 96.73255409 -0.03137882 111.56899536 -0.00987476 C124.29222158 0.00799563 137.0153018 0.00489134 149.73852539 -0.0135498 C164.52282393 -0.03496833 179.3070358 -0.04337678 194.09134769 -0.03110075 C195.66861533 -0.02982659 197.24588297 -0.0285691 198.82315063 -0.02732849 C199.59914413 -0.02671139 200.37513763 -0.02609429 201.17464608 -0.02545848 C206.63625784 -0.02200853 212.0978145 -0.02782628 217.55941772 -0.0372467 C224.21766919 -0.048479 230.87573208 -0.04540091 237.53396201 -0.02412373 C240.929461 -0.01362969 244.32464588 -0.00946293 247.72014236 -0.02272034 C251.40439921 -0.03364872 255.08777214 -0.01994294 258.77197266 0 C259.84046039 -0.00892289 260.90894812 -0.01784577 262.00981426 -0.02703905 C269.33805634 0.04991641 274.91118296 1.19412596 280.40942383 6.43762207 C280.85543945 7.0795752 281.30145508 7.72152832 281.76098633 8.38293457 C282.45321289 9.33812988 282.45321289 9.33812988 283.15942383 10.31262207 C285.98398152 15.36804061 286.63497247 19.94431558 286.62649536 25.68331909 C286.62906342 26.72980118 286.62906342 26.72980118 286.63168335 27.79742432 C286.63497957 30.12990714 286.62397004 32.46209932 286.61303711 34.79455566 C286.61242414 36.49737857 286.61269193 38.20020199 286.61376762 39.90302467 C286.61421852 44.45667922 286.60263987 49.01022833 286.58854675 53.56385803 C286.5771438 57.8392469 286.5766198 62.11461031 286.57519531 66.39001465 C286.56470714 78.88766855 286.53678477 91.3853029 286.51098633 103.88293457 C286.46973633 131.80918457 286.42848633 159.73543457 286.38598633 188.50793457 C182.76598633 188.50793457 79.14598633 188.50793457 -27.61401367 188.50793457 C-27.67588867 160.62293457 -27.73776367 132.73793457 -27.80151367 104.00793457 C-27.82882568 95.20557129 -27.8561377 86.40320801 -27.88427734 77.33410645 C-27.89782715 66.57922363 -27.89782715 66.57922363 -27.90034485 61.54321289 C-27.903138 58.02850658 -27.91437327 54.51393642 -27.93074036 50.99926758 C-27.95135806 46.51219662 -27.95747967 42.0253229 -27.9532305 37.53820896 C-27.95411868 35.89388201 -27.96004372 34.24954797 -27.97165906 32.6052618 C-28.0364351 22.98648518 -27.95116513 15.46598817 -22.42651367 7.25793457 C-15.68885511 0.67000176 -9.16097082 -0.0765028 0 0 Z M-8.61401367 19.50793457 C-8.61401367 69.33793457 -8.61401367 119.16793457 -8.61401367 170.50793457 C82.46598633 170.50793457 173.54598633 170.50793457 267.38598633 170.50793457 C267.38598633 120.67793457 267.38598633 70.84793457 267.38598633 19.50793457 C176.30598633 19.50793457 85.22598633 19.50793457 -8.61401367 19.50793457 Z " fill="#4EC4FC" transform="translate(126.614013671875,105.4920654296875)"/>
<path d="M0 0 C103.62 0 207.24 0 314 0 C314 39.6 314 39.6 306.875 47.4375 C299.45665971 53.02676639 290.48993141 53.43954311 281.53857422 53.38095093 C279.87025197 53.38797089 279.87025197 53.38797089 278.16822624 53.39513266 C274.46358987 53.40704158 270.75932623 53.3976412 267.0546875 53.38818359 C264.3896579 53.39225111 261.72465346 53.39748603 259.05963135 53.40411377 C252.58587677 53.41741726 246.11222685 53.41458853 239.63846827 53.40587585 C234.37467246 53.39908633 229.11090587 53.39818805 223.84710693 53.4014473 C223.0964508 53.401907 222.34579468 53.40236669 221.57239139 53.40284032 C220.04720004 53.40379955 218.52200869 53.40477219 216.99681735 53.4057581 C202.71254845 53.41430208 188.42833742 53.40449346 174.14407802 53.388357 C161.90136159 53.37495471 149.65873051 53.37728309 137.41601562 53.39111328 C123.1810446 53.40718665 108.94612423 53.4134782 94.7111454 53.40427649 C93.19172796 53.4033209 91.67231052 53.40237778 90.15289307 53.4014473 C89.40541207 53.40098447 88.65793108 53.40052164 87.88779914 53.40004479 C82.6335 53.39746017 77.37923311 53.40181449 72.12493896 53.40888596 C65.71715127 53.41732071 59.30947375 53.41497946 52.90169859 53.39904372 C49.63558855 53.39118742 46.36969869 53.38965308 43.10358429 53.39799118 C39.55601633 53.40621164 36.00896124 53.39587823 32.46142578 53.38095093 C30.92784329 53.39098918 30.92784329 53.39098918 29.36327934 53.40123022 C21.44036936 53.33674718 13.61541778 52.32763344 7.125 47.4375 C-4.99493522 34.10557126 0 17.36250304 0 0 Z M142 21 C140.54852097 23.90295805 140.62760975 25.77261779 141 29 C143.05303624 32.43229611 145.12865724 34.70955241 149 36 C151.63937224 36.14821529 154.23506123 36.23097341 156.875 36.25 C157.58269531 36.270625 158.29039062 36.29125 159.01953125 36.3125 C163.56799307 36.34638053 166.3679531 35.75604301 170 33 C172.35817491 30.64182509 172.94278258 29.38417407 173.4375 26.0625 C172.89919863 22.29439042 171.62436976 20.70155711 169 18 C165.38046959 16.19023479 161.17331702 16.72963337 157.1875 16.6875 C156.28451172 16.65849609 155.38152344 16.62949219 154.45117188 16.59960938 C149.03059568 16.54783311 145.86340603 16.77611389 142 21 Z " fill="#51C0FC" transform="translate(99,301)"/>
<path d="M0 0 C21.78 0 43.56 0 66 0 C68.64 7.59 71.28 15.18 74 23 C78.30943901 29.622565 78.30943901 29.622565 85.05053711 32.56323242 C89.28601489 33.19043793 93.47776975 33.15604432 97.75390625 33.17578125 C99.67904757 33.19896501 101.60417783 33.22308174 103.52929688 33.24804688 C106.5533811 33.28324213 109.57705358 33.31256431 112.60131836 33.32592773 C115.52768012 33.34137592 118.4528568 33.38154414 121.37890625 33.42578125 C122.73526939 33.42291862 122.73526939 33.42291862 124.11903381 33.41999817 C130.3603296 33.54188176 130.3603296 33.54188176 133.54272461 35.82104492 C135.61659328 38.9219459 135.9349145 41.29012629 136 45 C134.65437601 47.94755732 133.91445456 49.54277272 131 51 C128.43966682 51.10209536 125.90627637 51.14338442 123.3454895 51.14044189 C122.54622665 51.14341302 121.7469638 51.14638414 120.92348087 51.1494453 C118.23038956 51.15815543 115.53734258 51.15964249 112.84423828 51.16113281 C110.91942245 51.16575932 108.99460754 51.17078375 107.0697937 51.17617798 C101.83014159 51.18931941 96.5905023 51.19575024 91.35083628 51.20018864 C88.07999784 51.20311633 84.80916293 51.20722054 81.53832626 51.21169281 C71.31238322 51.22537184 61.08644821 51.23503672 50.86049664 51.2388947 C39.04158033 51.24337772 27.22277953 51.26093525 15.40389836 51.2898953 C6.27775398 51.31148392 -2.84835783 51.32159746 -11.97452748 51.32293582 C-17.42966657 51.3239858 -22.88469713 51.3299346 -28.33980942 51.34775543 C-33.46975525 51.3641876 -38.59951041 51.36641531 -43.72947311 51.35761642 C-45.61449187 51.35684346 -47.49952068 51.36122272 -49.38451385 51.37107468 C-51.9537462 51.3837175 -54.52229535 51.37795949 -57.09152222 51.36749268 C-57.84113248 51.37554908 -58.59074274 51.38360548 -59.36306846 51.39190602 C-62.53001951 51.36163709 -64.67641746 51.18530599 -67.45179939 49.59592819 C-69.78924218 47.18642724 -69.78960254 45.17063374 -70.0390625 41.93359375 C-69.98867306 39.43931628 -69.52366239 37.9807611 -68 36 C-64.90660336 33.93773557 -64.23375341 33.74862043 -60.73144531 33.72875977 C-59.87335266 33.71857315 -59.01526001 33.70838654 -58.13116455 33.69789124 C-56.74365997 33.69468117 -56.74365997 33.69468117 -55.328125 33.69140625 C-53.36458047 33.66623764 -51.40103888 33.64083975 -49.4375 33.61523438 C-46.34571142 33.58654313 -43.25397391 33.56252419 -40.16210938 33.54370117 C-37.17550708 33.52196566 -34.18951454 33.4825104 -31.203125 33.44140625 C-30.28621887 33.44129044 -29.36931274 33.44117462 -28.42462158 33.4410553 C-21.58576081 33.33628684 -16.9020358 32.15965455 -11.3125 28 C-7.91454433 23.5918413 -6.75965746 19.33396169 -5 14 C-3.35 9.38 -1.7 4.76 0 0 Z " fill="#52BEFB" transform="translate(223,361)"/>
<path d="M0 0 C11.6957518 10.00572527 20.2995695 24.82495808 21.6875 40.3125 C22.72279273 58.21365245 19.45775774 74.83442123 7.25 88.75 C5.74944177 90.29084167 4.2297503 91.81338957 2.6875 93.3125 C2.07390625 93.94671875 1.4603125 94.5809375 0.828125 95.234375 C-11.0790665 106.73448303 -27.31283946 110.84205185 -43.43286133 110.73461914 C-60.94736337 110.16987412 -74.91341272 103.66905181 -87.3125 91.3125 C-87.95058594 90.69761719 -88.58867187 90.08273438 -89.24609375 89.44921875 C-100.27396176 77.97925358 -104.85322891 62.08197483 -104.73461914 46.47631836 C-104.13483767 30.05410495 -97.7187105 15.17879294 -86.3125 3.3125 C-79.34526959 -2.79722513 -72.03043656 -7.52523283 -63.3125 -10.6875 C-62.43722656 -11.00589844 -61.56195313 -11.32429687 -60.66015625 -11.65234375 C-39.67514941 -18.03908496 -17.32800616 -12.8952604 0 0 Z M-44.75 -4.9375 C-51.61476614 2.72991572 -55.3125 15.19128872 -55.3125 25.3125 C-46.0725 25.3125 -36.8325 25.3125 -27.3125 25.3125 C-28.66780263 14.47007892 -30.98331945 2.88764124 -38.3125 -5.6875 C-41.45401445 -7.03817032 -41.87730188 -6.99994994 -44.75 -4.9375 Z M-78.3125 7.3125 C-78.92738281 7.83457031 -79.54226562 8.35664063 -80.17578125 8.89453125 C-87.88692791 15.92176246 -92.7721326 25.043384 -94.3125 35.3125 C-93.136875 34.9 -91.96125 34.4875 -90.75 34.0625 C-81.43921323 30.95399366 -71.84199925 28.64625492 -62.3125 26.3125 C-62.07466797 24.93191406 -62.07466797 24.93191406 -61.83203125 23.5234375 C-60.32446443 15.34426281 -58.27606482 7.81030198 -55.30078125 0.04296875 C-54.19905381 -2.51696464 -54.19905381 -2.51696464 -54.3125 -4.6875 C-63.37667515 -4.6875 -71.80760714 1.51219902 -78.3125 7.3125 Z M-28.3125 -4.6875 C-27.9 -3.511875 -27.4875 -2.33625 -27.0625 -1.125 C-25.62629131 3.19046514 -24.37404567 7.54782532 -23.1875 11.9375 C-22.85492188 13.16726562 -22.52234375 14.39703125 -22.1796875 15.6640625 C-21.33212684 19.22992582 -20.76992148 22.68113357 -20.3125 26.3125 C-19.16587891 26.55033203 -19.16587891 26.55033203 -17.99609375 26.79296875 C-10.29411535 28.47053565 -2.96932578 30.64959076 4.47265625 33.2265625 C6.87770274 34.03895973 9.21491683 34.75755615 11.6875 35.3125 C9.76475309 22.49418728 2.5761654 12.46853599 -7.3125 4.3125 C-14.01202828 -0.40165894 -20.19995999 -3.470619 -28.3125 -4.6875 Z M-56.3125 33.3125 C-57.61634209 38.2795175 -57.45965112 43.21774165 -57.4375 48.3125 C-57.44136719 49.20195312 -57.44523437 50.09140625 -57.44921875 51.0078125 C-57.44291234 55.23310791 -57.39323173 59.19542676 -56.3125 63.3125 C-51.26371902 64.33196539 -46.43663591 64.46286701 -41.3125 64.4375 C-40.53132813 64.44136719 -39.75015625 64.44523437 -38.9453125 64.44921875 C-34.62257169 64.44194141 -30.56893155 64.17197175 -26.3125 63.3125 C-25.00865791 58.3454825 -25.16534888 53.40725835 -25.1875 48.3125 C-25.18363281 47.42304688 -25.17976563 46.53359375 -25.17578125 45.6171875 C-25.18208766 41.39189209 -25.23176827 37.42957324 -26.3125 33.3125 C-29.39916562 32.41102892 -32.16423466 32.18382508 -35.375 32.1796875 C-36.33664062 32.17839844 -37.29828125 32.17710937 -38.2890625 32.17578125 C-39.28679687 32.17964844 -40.28453125 32.18351562 -41.3125 32.1875 C-42.31023437 32.18363281 -43.30796875 32.17976563 -44.3359375 32.17578125 C-45.29757813 32.17707031 -46.25921875 32.17835938 -47.25 32.1796875 C-48.56291016 32.18137939 -48.56291016 32.18137939 -49.90234375 32.18310547 C-52.17619448 32.30518214 -54.13263036 32.67586174 -56.3125 33.3125 Z M-94.3125 44.3125 C-95.63399406 46.89079676 -95.63399406 46.89079676 -96.3125 49.3125 C-88.47932967 57.14567033 -78.12474294 60.59627096 -67.3125 62.3125 C-65.9925 61.9825 -64.6725 61.6525 -63.3125 61.3125 C-63.3125 52.4025 -63.3125 43.4925 -63.3125 34.3125 C-73.63825123 34.3125 -86.11953391 37.75504126 -94.3125 44.3125 Z M-19.3125 34.3125 C-19.3125 43.5525 -19.3125 52.7925 -19.3125 62.3125 C-12.95241008 61.60582334 -8.46842265 60.97223147 -2.625 59 C-1.38363281 58.59136719 -0.14226562 58.18273437 1.13671875 57.76171875 C5.99008835 55.78086053 10.16416636 53.22731516 13.6875 49.3125 C12.74242418 45.74084981 11.96345925 44.49875349 8.8515625 42.3984375 C-0.29928235 37.97451913 -8.96394231 34.3125 -19.3125 34.3125 Z M-95.3125 60.3125 C-90.75426407 76.53528999 -82.40840021 88.07082737 -68 96.8359375 C-63.60210974 99.25222023 -59.41743504 101.3125 -54.3125 101.3125 C-54.725 100.1575 -55.1375 99.0025 -55.5625 97.8125 C-57.28692941 92.66372972 -58.58741214 87.43492988 -59.86621094 82.16210938 C-60.91493904 77.84381719 -62.06645474 73.57674377 -63.3125 69.3125 C-65.05273438 68.96638672 -65.05273438 68.96638672 -66.828125 68.61328125 C-75.34399581 66.8567916 -83.20194984 64.91903146 -91.125 61.265625 C-93.22039793 60.17935189 -93.22039793 60.17935189 -95.3125 60.3125 Z M6.25 62.5625 C-1.8446905 66.36094434 -10.5795301 67.69260196 -19.3125 69.3125 C-20.56365617 73.57528873 -21.69139415 77.83564034 -22.70800781 82.16210938 C-24.30953942 88.92703107 -26.18676218 95.06102437 -29.3125 101.3125 C-17.47000012 100.77420455 -7.52484353 93.21896433 0.33740234 84.8671875 C6.5220471 77.74533979 10.6917272 69.52215992 12.6875 60.3125 C10.03735611 60.3125 8.60967565 61.3403279 6.25 62.5625 Z M-55.3125 70.3125 C-54.60582334 76.67258992 -53.97223147 81.15657735 -52 87 C-51.59136719 88.24136719 -51.18273437 89.48273438 -50.76171875 90.76171875 C-48.78086053 95.61508835 -46.22731516 99.78916636 -42.3125 103.3125 C-37.44493787 101.40024345 -35.05627121 97.91715557 -32.8984375 93.26171875 C-28.67333829 82.08443901 -28.67333829 82.08443901 -27.3125 70.3125 C-36.5525 70.3125 -45.7925 70.3125 -55.3125 70.3125 Z " fill="#4EC5FC" transform="translate(297.3125,151.6875)"/>
</svg>
