<?xml version="1.0" encoding="UTF-8"?>
<svg version="1.1" xmlns="http://www.w3.org/2000/svg" width="512" height="512">
<path d="M0 0 C7.34814111 6.81345309 10.70254734 13.9823668 12.87890625 23.7421875 C12.87890625 24.7321875 12.87890625 25.7221875 12.87890625 26.7421875 C13.70390625 26.9690625 14.52890625 27.1959375 15.37890625 27.4296875 C19.01090236 28.79168604 21.53673396 30.53320327 24.55859375 32.9140625 C27.61038932 34.00325553 29.66426761 33.17923155 32.69775391 32.29736328 C42.22310121 29.87284573 53.51238719 30.8269496 62.26171875 35.12890625 C71.50835233 40.8286968 78.23845336 48.58091481 81.3671875 59.0703125 C83.64856107 70.98221726 81.8857755 81.29893992 75.12890625 91.34375 C72.84758561 94.36256653 70.65587331 97.11334725 67.70703125 99.5 C65.12179591 102.6707801 65.15285172 105.68910834 65.19140625 109.6171875 C65.19575684 110.34244629 65.20010742 111.06770508 65.20458984 111.81494141 C65.33616893 114.87467738 65.51290791 117.19686046 67.2421875 119.7734375 C68.99582052 121.14997151 68.99582052 121.14997151 70.93359375 122.34765625 C77.7028527 127.20031779 80.52896665 136.90128832 81.87890625 144.7421875 C83.10357649 155.91730348 79.52027382 165.801885 72.87890625 174.7421875 C67.1413265 181.07289259 60.20382555 184.90665842 51.87890625 186.7421875 C49.11669484 186.86338657 46.39076862 186.92728588 43.62890625 186.9296875 C42.90316406 186.94193359 42.17742187 186.95417969 41.4296875 186.96679688 C37.61321149 186.97700136 34.43649951 186.69018533 30.7890625 185.53515625 C26.09768775 184.58375857 23.5265556 185.49760327 19.56640625 187.8671875 C18.94757568 188.22901123 18.32874512 188.59083496 17.69116211 188.96362305 C14.77268791 190.86096692 13.03998537 192.39763069 11.55859375 195.56640625 C11.14183099 197.58427658 10.78233759 199.61469965 10.4765625 201.65234375 C8.69768788 210.84900926 2.18660941 216.90428006 -5.1796875 222.0859375 C-11.7457749 225.78317662 -17.46494352 227.28135077 -24.99609375 227.1796875 C-25.7854834 227.17211426 -26.57487305 227.16454102 -27.38818359 227.15673828 C-38.20528029 226.85187462 -46.08953672 222.55035353 -53.80859375 215.1171875 C-60.15753267 208.26033346 -62.53689109 200.94337937 -63.12109375 191.7421875 C-64.35859375 191.401875 -64.35859375 191.401875 -65.62109375 191.0546875 C-68.67416227 189.9097868 -70.37592946 188.87327526 -72.93359375 186.9921875 C-76.34797337 184.79905602 -76.7904018 184.68444763 -81.05859375 185.4296875 C-81.80367187 185.65140625 -82.54875 185.873125 -83.31640625 186.1015625 C-94.15630907 188.57752916 -105.59545417 187.58092486 -115.12109375 181.7421875 C-123.56688698 175.85536149 -128.52883845 168.58295972 -131.75390625 158.828125 C-133.62715234 148.18649298 -132.47211836 137.62937083 -126.66015625 128.4296875 C-124.12999989 124.93627364 -121.40351839 121.55569434 -118.12109375 118.7421875 C-117.46109375 118.7421875 -116.80109375 118.7421875 -116.12109375 118.7421875 C-116.12109375 112.4721875 -116.12109375 106.2021875 -116.12109375 99.7421875 C-117.44109375 99.0821875 -118.76109375 98.4221875 -120.12109375 97.7421875 C-127.08255999 91.37610982 -131.616241 83.16457658 -132.359375 73.7109375 C-132.61467839 61.77886339 -130.43820333 51.63770518 -122.12109375 42.7421875 C-114.74428672 35.2785945 -106.58436649 31.64026132 -96.12109375 30.7421875 C-90.83368525 30.80701948 -86.1138006 31.32714847 -81.18359375 33.2421875 C-78.06957643 34.16150238 -77.06960817 33.71836484 -74.03125 32.3125 C-71.87835094 31.03765609 -69.75251246 29.71570002 -67.66015625 28.34375 C-65.12109375 26.7421875 -65.12109375 26.7421875 -63.12109375 26.7421875 C-63.023125 26.0409375 -62.92515625 25.3396875 -62.82421875 24.6171875 C-61.11470431 13.77061312 -57.34714187 6.20912044 -49.12109375 -1.2578125 C-33.93114702 -12.0518807 -14.57420623 -11.83602203 0 0 Z M-37.7109375 19.3671875 C-41.26316175 24.30941255 -41.70659758 28.91613001 -41.78515625 34.91015625 C-42.1977483 38.38840322 -42.89809384 40.0227027 -45.12109375 42.7421875 C-47.60654089 44.18507165 -49.95104767 45.39199438 -52.55859375 46.5546875 C-57.9615104 49.07539726 -62.78359439 51.75152704 -67.62109375 55.2421875 C-73.55595093 59.29740663 -73.55595093 59.29740663 -77.24609375 59.5546875 C-81.59625116 58.64255772 -84.84867356 56.96177694 -88.734375 54.8671875 C-92.06800803 53.29585147 -94.49927876 53.18498519 -98.12109375 53.7421875 C-103.79658928 55.78536589 -107.41983096 59.33966191 -110.12109375 64.7421875 C-110.68845267 69.39267044 -110.58095685 72.83949327 -108.43359375 77.0546875 C-105.43450544 80.54011445 -102.44522457 83.00313774 -98.43359375 85.2421875 C-95.71564418 87.00518181 -95.21312197 87.72009826 -94.12109375 90.7421875 C-93.9051404 93.54540715 -93.79322929 96.24689701 -93.78515625 99.05078125 C-93.77849945 99.85451675 -93.77184265 100.65825226 -93.76498413 101.48634338 C-93.75487606 103.18333656 -93.75016654 104.88036933 -93.75048828 106.57739258 C-93.74611433 109.16749781 -93.70977577 111.75589912 -93.671875 114.34570312 C-93.66600648 115.99739003 -93.66203732 117.64908499 -93.66015625 119.30078125 C-93.64578522 120.07175644 -93.63141418 120.84273163 -93.61660767 121.6370697 C-93.65906622 126.6568032 -94.54882502 129.21152451 -98.12109375 132.7421875 C-100.12109375 134.33203125 -100.12109375 134.33203125 -102.12109375 135.6796875 C-106.15494256 138.63734157 -109.55436824 141.49817254 -110.4609375 146.6875 C-110.68454018 151.39210045 -109.77048813 154.76809592 -107.12109375 158.7421875 C-103.48061282 162.42245511 -100.27481915 164.47846602 -95.05859375 165.1171875 C-91.1794093 164.74774136 -89.51632098 164.05724202 -86.18359375 162.2421875 C-81.37826598 159.68274888 -78.53337766 158.93034491 -73.12109375 159.7421875 C-70.88368264 160.98519367 -69.13039406 162.20247648 -67.12109375 163.7421875 C-60.50087409 168.202466 -53.80103677 172.02819567 -46.5546875 175.3828125 C-44.12109375 176.7421875 -44.12109375 176.7421875 -42.12109375 179.7421875 C-41.92511294 181.63200245 -41.8093093 183.53078971 -41.74609375 185.4296875 C-41.27093584 191.87937195 -40.30010252 196.91563405 -35.32421875 201.33984375 C-30.94712996 204.3851439 -27.53041322 205.54356816 -22.12109375 204.7421875 C-16.44559822 202.69900911 -12.82235654 199.14471309 -10.12109375 193.7421875 C-9.94060869 191.82847289 -9.8005262 189.91083423 -9.68359375 187.9921875 C-8.95542898 179.06146078 -8.95542898 179.06146078 -7.12109375 175.7421875 C-5.13792879 175.02699439 -3.13433507 174.36773034 -1.12109375 173.7421875 C5.93724262 170.66547678 12.14801576 167.12969847 18.0390625 162.16015625 C21.77271268 159.28262968 25.32941582 159.3089027 29.87890625 159.7421875 C31.57237633 160.51960715 33.23848581 161.35830799 34.87890625 162.2421875 C39.15229689 164.50798828 41.96209773 165.56165559 46.87890625 164.7421875 C51.278121 163.25360633 54.22105871 161.48437447 57.31640625 157.9921875 C59.51099327 153.42744649 60.75220661 149.56757101 59.21484375 144.59375 C56.59088383 138.85517098 53.04737178 136.06027439 47.69140625 132.8046875 C44.4942155 130.46008095 43.93859267 129.48745174 42.87890625 125.7421875 C42.9375 122.421875 42.9375 122.421875 43.31640625 118.6171875 C43.96878002 111.36241494 43.70294732 104.36810989 42.93334961 97.12646484 C42.60641233 93.189021 42.5152107 91.34478916 44.609375 87.875 C46.62922078 85.97683168 48.5841288 84.35097309 50.87890625 82.8046875 C55.04005289 79.74593418 58.32935489 76.91928128 59.25390625 71.57421875 C59.5446318 66.15037024 58.5003153 62.95085207 54.87890625 58.7421875 C51.25601701 55.47275087 48.70306097 53.96555338 43.81640625 53.3671875 C39.23867365 53.80316203 36.49427103 55.30891317 32.6015625 57.6484375 C28.9593155 59.11160703 25.71019612 59.43446258 21.87890625 58.7421875 C19.25104054 57.5379986 17.05192693 55.9206028 14.75390625 54.1796875 C8.62111991 49.78141872 2.48589779 46.40499273 -4.390625 43.3125 C-7.33725379 41.61787228 -8.17464318 40.95088579 -9.12109375 37.7421875 C-9.33586547 35.7902116 -9.47621856 33.8292148 -9.55859375 31.8671875 C-9.99801126 25.74513333 -10.92833714 21.81953586 -15.49609375 17.4921875 C-23.30633326 12.28536116 -30.95054998 12.45730738 -37.7109375 19.3671875 Z " fill="#56A0D7" transform="translate(249.12109375,253.2578125)"/>
<path d="M0 0 C0.71574692 -0.0065712 1.43149384 -0.0131424 2.16893005 -0.01991272 C4.54491277 -0.03966798 6.92083197 -0.05131806 9.296875 -0.0612793 C10.11000153 -0.06535482 10.92312805 -0.06943035 11.76089478 -0.07362938 C16.07122545 -0.09450744 20.3815242 -0.10879717 24.69189453 -0.11816406 C29.12576799 -0.1291848 33.55913351 -0.16352881 37.99282837 -0.20333576 C41.41600413 -0.22960981 44.8390614 -0.23786579 48.2623291 -0.24144554 C49.89525756 -0.24628991 51.5281815 -0.25784197 53.16101074 -0.27648354 C65.35115024 -0.40691525 75.08666016 0.61348065 84.29296875 9.31762695 C90.13123181 15.50696596 93.27127243 21.40083128 93.33740234 30.11547852 C93.35016205 31.26397278 93.36292175 32.41246704 93.37606812 33.59576416 C93.37829376 34.82397888 93.38051941 36.0521936 93.3828125 37.31762695 C93.3927977 39.2336673 93.3927977 39.2336673 93.40298462 41.18841553 C93.41492573 43.88825865 93.41866889 46.58797415 93.41748047 49.2878418 C93.41727781 52.72177989 93.44453745 56.15488544 93.47902489 59.58862686 C93.50682162 62.89413682 93.50544796 66.19950199 93.5078125 69.50512695 C93.52218353 70.72524475 93.53655457 71.94536255 93.55136108 73.20245361 C93.49928264 83.02951057 91.60279751 91.30841321 84.75 98.64575195 C78.37183742 104.38024675 71.3990437 107.43987402 62.76611328 107.40405273 C60.93489426 107.40382614 60.93489426 107.40382614 59.06668091 107.40359497 C57.11168167 107.38811111 57.11168167 107.38811111 55.1171875 107.37231445 C53.75812997 107.36857997 52.39906974 107.36573505 51.04000854 107.36373901 C47.47913051 107.35613679 43.91841803 107.33651805 40.35760498 107.31433105 C36.71759276 107.29379875 33.07755355 107.28472157 29.4375 107.2746582 C22.30722432 107.25326858 15.17706052 107.21917429 8.046875 107.17700195 C8.05797806 108.1533963 8.06908112 109.12979065 8.08052063 110.13577271 C8.18196458 119.34610616 8.25687287 128.55632598 8.30593586 137.76709175 C8.33200803 142.50227299 8.36736234 147.23700254 8.42407227 151.97192383 C8.47847735 156.54311424 8.50831345 161.11387072 8.52126122 165.68535995 C8.53048589 167.42769068 8.54849998 169.16999817 8.57552528 170.91214371 C8.61193015 173.35657954 8.61681581 175.79923233 8.61450195 178.24389648 C8.63247833 178.96103317 8.65045471 179.67816986 8.66897583 180.41703796 C8.61127567 186.06645381 6.92412327 188.3682175 3.046875 192.17700195 C-1.03377687 193.80507025 -4.80221361 193.6523784 -8.828125 191.98950195 C-12.1832204 189.12780293 -13.80832131 187.41331592 -14.33623505 182.90606117 C-14.33996376 181.5975337 -14.34369247 180.28900623 -14.34753418 178.94082642 C-14.35362528 178.21068624 -14.35971639 177.48054606 -14.36599207 176.72828043 C-14.38264567 174.28085387 -14.37784302 171.83394624 -14.37304688 169.38647461 C-14.38038589 167.63208983 -14.38897163 165.87770988 -14.39871216 164.12333679 C-14.42095557 159.35675123 -14.4238574 154.5903384 -14.42196465 149.82370806 C-14.42184506 145.84504672 -14.43040423 141.86642214 -14.43874216 137.88777101 C-14.45798676 128.50108354 -14.46085635 119.114485 -14.45410156 109.7277832 C-14.44746103 100.04376767 -14.4703232 90.36013306 -14.50741529 80.67619479 C-14.53810304 72.36269102 -14.54947329 64.04930984 -14.54557848 55.73575056 C-14.54350987 50.77011421 -14.54900738 45.80477418 -14.57347107 40.83919144 C-14.59572012 36.16869968 -14.59387581 31.49882739 -14.57354355 26.8283329 C-14.57013012 25.1150839 -14.57523695 23.40179335 -14.58952713 21.68860054 C-14.60770673 19.34739266 -14.59498312 17.00828923 -14.57458496 14.66714478 C-14.57565372 12.70322249 -14.57565372 12.70322249 -14.57674408 10.69962502 C-13.75903481 6.08064906 -12.23476996 4.4690614 -8.953125 1.17700195 C-5.98893774 -0.30509168 -3.30804938 0.02509326 0 0 Z M8.046875 22.17700195 C8.046875 42.96700195 8.046875 63.75700195 8.046875 85.17700195 C21.7521875 85.26981445 21.7521875 85.26981445 35.734375 85.36450195 C38.61244873 85.39181396 41.49052246 85.41912598 44.45581055 85.44726562 C46.74006734 85.45602846 49.02432883 85.46367287 51.30859375 85.4699707 C53.08393494 85.49299255 53.08393494 85.49299255 54.8951416 85.51647949 C56.59966492 85.51702332 56.59966492 85.51702332 58.33862305 85.51757812 C59.81421944 85.52757088 59.81421944 85.52757088 61.31962585 85.5377655 C64.60171316 85.10360734 66.42085613 84.17839822 69.046875 82.17700195 C71.05500863 79.25188042 71.30909333 76.82241524 71.35327148 73.32006836 C71.36925888 72.35871979 71.38524628 71.39737122 71.40171814 70.40689087 C71.40708084 69.37454315 71.41244354 68.34219543 71.41796875 67.27856445 C71.42699722 66.21084808 71.4360257 65.14313171 71.44532776 64.0430603 C71.45982882 61.78532718 71.46871663 59.52755205 71.47241211 57.26977539 C71.48430787 53.82146179 71.53349674 50.37493795 71.58398438 46.92700195 C71.59344888 44.73169817 71.60068378 42.53638342 71.60546875 40.34106445 C71.62500107 39.3127652 71.64453339 38.28446594 71.66465759 37.2250061 C71.62707193 30.93569986 71.62707193 30.93569986 68.69946289 25.54174805 C64.99636445 22.24048606 62.44232774 22.05252723 57.6574707 22.06347656 C56.54118286 22.06359741 55.42489502 22.06371826 54.27478027 22.06384277 C52.51647888 22.07151672 52.51647888 22.07151672 50.72265625 22.0793457 C49.64447632 22.08035278 48.56629639 22.08135986 47.45544434 22.08239746 C43.42341042 22.08763405 39.39139166 22.1015953 35.359375 22.11450195 C26.34625 22.13512695 17.333125 22.15575195 8.046875 22.17700195 Z " fill="#36474F" transform="translate(66.953125,116.822998046875)"/>
<path d="M0 0 C1.07383942 -0.0098568 1.07383942 -0.0098568 2.16937256 -0.01991272 C4.53991813 -0.03962857 6.91040021 -0.05130806 9.28100586 -0.0612793 C10.49932004 -0.06739259 10.49932004 -0.06739259 11.74224663 -0.07362938 C16.04609802 -0.09448864 20.3499176 -0.10878768 24.65380859 -0.11816406 C29.07980622 -0.12919314 33.50529618 -0.16355241 37.93111515 -0.20333576 C41.34999972 -0.22960688 44.76876563 -0.23786543 48.18774223 -0.24144554 C49.81787967 -0.24628904 51.44801261 -0.25783856 53.07805061 -0.27648354 C65.72461547 -0.4120802 75.41996258 0.89103242 84.95288086 9.8840332 C90.034419 15.76739195 93.03218794 22.84359407 93.11035156 30.59130859 C93.12960442 32.25432762 93.12960442 32.25432762 93.14924622 33.95094299 C93.15663315 35.15089401 93.16402008 36.35084503 93.17163086 37.5871582 C93.17970261 38.82437119 93.18777435 40.06158417 93.1960907 41.33628845 C93.20993442 43.95985512 93.22065528 46.58343983 93.22851562 49.20703125 C93.24168929 53.1992549 93.28955748 57.19086269 93.33374023 61.18286133 C93.34387182 63.73428754 93.35238646 66.28572079 93.35913086 68.8371582 C93.37663895 70.02293961 93.39414703 71.20872101 93.41218567 72.43043518 C93.3852482 82.84188388 91.00381136 90.79598471 83.79272461 98.4230957 C77.47194723 104.3853416 71.54892931 107.44096701 62.65258789 107.40405273 C60.82136887 107.40382614 60.82136887 107.40382614 58.95315552 107.40359497 C56.99815628 107.38811111 56.99815628 107.38811111 55.00366211 107.37231445 C53.64460458 107.36857997 52.28554435 107.36573505 50.92648315 107.36373901 C47.36560511 107.35613679 43.80489264 107.33651805 40.24407959 107.31433105 C36.60406737 107.29379875 32.96402816 107.28472157 29.32397461 107.2746582 C22.19369893 107.25326858 15.06353513 107.21917429 7.93334961 107.17700195 C7.94223206 108.14086823 7.9511145 109.1047345 7.96026611 110.09780884 C8.04142516 119.19045046 8.10135009 128.28301839 8.1405983 137.37594032 C8.16145477 142.050504 8.18973685 146.72477479 8.23510742 151.39916992 C8.27863457 155.9119898 8.30250131 160.42452833 8.31285858 164.93754196 C8.32023764 166.65751956 8.3346474 168.37748212 8.35626984 170.09733963 C8.3853959 172.51046016 8.38930189 174.92242475 8.38745117 177.33569336 C8.40183228 178.04347931 8.41621338 178.75126526 8.43103027 179.48049927 C8.38956417 184.49197418 7.05584354 187.30747662 3.93334961 191.17700195 C1.06439217 193.18243161 -1.05366257 193.4434046 -4.50415039 193.11450195 C-5.24536133 193.06165039 -5.98657227 193.00879883 -6.75024414 192.9543457 C-10.20778006 191.79405962 -11.76387326 189.98166378 -14.06665039 187.17700195 C-14.55872265 184.48415627 -14.7411403 182.4226373 -14.69483948 179.73791504 C-14.70193386 178.99804777 -14.70902825 178.25818049 -14.71633762 177.495893 C-14.73391441 175.02122608 -14.71581602 172.54813057 -14.69775391 170.07348633 C-14.70289288 168.29762558 -14.710174 166.52176993 -14.71943665 164.7459259 C-14.73796169 159.92560019 -14.72500513 155.10582712 -14.70534635 150.28552437 C-14.68896766 145.24165319 -14.69777166 140.19781723 -14.7028656 135.15393066 C-14.70738743 126.68350389 -14.69151117 118.21329788 -14.66357422 109.74291992 C-14.63152195 99.94926186 -14.63153778 90.15600199 -14.64878899 80.36231565 C-14.66465141 70.94203923 -14.65792234 61.52190883 -14.64085197 52.10163879 C-14.63397843 48.09214899 -14.63501706 44.08277613 -14.64239693 40.07328796 C-14.65005668 35.35192669 -14.63794377 30.63101869 -14.61054802 25.90973473 C-14.60365985 24.17673272 -14.60357086 22.44368841 -14.61076355 20.71068764 C-14.61944979 18.34531513 -14.603518 15.98134416 -14.58131409 13.61608887 C-14.58955485 12.92980203 -14.59779562 12.2435152 -14.60628611 11.53643179 C-14.52506494 6.85059724 -13.41558078 4.43616001 -10.06665039 1.17700195 C-6.54135414 0.0019032 -3.72165155 0.02827904 0 0 Z M7.93334961 22.17700195 C7.93334961 42.96700195 7.93334961 63.75700195 7.93334961 85.17700195 C21.60772461 85.33168945 21.60772461 85.33168945 35.55834961 85.48950195 C38.42731934 85.53502197 41.29628906 85.58054199 44.25219727 85.62744141 C46.53392366 85.64204862 48.8156631 85.65478874 51.09741211 85.6652832 C52.86507935 85.70365295 52.86507935 85.70365295 54.66845703 85.74279785 C61.63694811 85.86994394 61.63694811 85.86994394 67.6730957 82.83398438 C70.6038297 79.3888366 71.05722173 76.98984049 71.11035156 72.6171875 C71.1231868 71.6958049 71.13602203 70.7744223 71.14924622 69.82511902 C71.15663315 68.83135757 71.16402008 67.83759613 71.17163086 66.8137207 C71.17970261 65.78898148 71.18777435 64.76424225 71.1960907 63.70845032 C71.20992403 61.5388864 71.22064954 59.36930079 71.22851562 57.19970703 C71.24572914 53.88768137 71.28962285 50.57665376 71.33374023 47.26489258 C71.34386736 45.15617595 71.3523834 43.04745085 71.35913086 40.9387207 C71.37663895 39.95103195 71.39414703 38.9633432 71.41218567 37.94572449 C71.3941571 32.20950447 70.95861533 28.61686076 66.93334961 24.17700195 C63.71836236 22.13684509 61.20173606 21.93265156 57.43041992 21.94995117 C55.75616943 21.95031372 55.75616943 21.95031372 54.0480957 21.95068359 C52.88101074 21.96091553 51.71392578 21.97114746 50.51147461 21.98168945 C49.43430176 21.98370361 48.35712891 21.98571777 47.24731445 21.98779297 C43.22594948 21.99825202 39.20464524 22.0261746 35.18334961 22.05200195 C26.19084961 22.09325195 17.19834961 22.13450195 7.93334961 22.17700195 Z " fill="#36474E" transform="translate(366.066650390625,116.822998046875)"/>
<path d="M0 0 C2.93423195 1.79646854 4.47205355 2.9441071 6 6 C6.09292928 8.53285051 6.12581684 11.03793593 6.11352539 13.57080078 C6.11367142 14.35137848 6.11381744 15.13195618 6.1139679 15.93618774 C6.11326986 18.52259069 6.10548257 21.10892209 6.09765625 23.6953125 C6.09579168 25.48607341 6.09436796 27.27683483 6.09336853 29.06759644 C6.08954641 33.78584191 6.07971871 38.5040567 6.06866455 43.22229004 C6.05844389 48.03490789 6.0538695 52.84753068 6.04882812 57.66015625 C6.03809619 67.10678433 6.0210234 76.55338962 6 86 C6.54755447 85.83832336 7.09510895 85.67664673 7.65925598 85.5100708 C10.31530036 84.931293 12.73295872 84.85822978 15.4519043 84.83886719 C17.08962044 84.82445587 17.08962044 84.82445587 18.76042175 84.80975342 C19.93647476 84.80550354 21.11252777 84.80125366 22.32421875 84.796875 C23.54019241 84.79117493 24.75616608 84.78547485 26.00898743 84.77960205 C28.58370088 84.77015511 31.1584264 84.76361929 33.7331543 84.75976562 C37.65500249 84.75008026 41.5763221 84.71906119 45.49804688 84.6875 C48.00260106 84.68096763 50.50715899 84.67571808 53.01171875 84.671875 C54.1776506 84.6595282 55.34358246 84.6471814 56.54484558 84.63446045 C67.64068922 84.66452597 76.02968725 86.99972367 84 95 C92.11213666 105.64284596 92.31412751 116.22991415 92.30078125 129.1015625 C92.30467409 130.66759351 92.30900997 132.23362347 92.31376648 133.7996521 C92.3211979 137.06926918 92.32095867 140.33877819 92.31567383 143.60839844 C92.30986547 147.78908951 92.32685774 151.96933952 92.3500185 156.14995766 C92.36477398 159.37910528 92.36562539 162.60814688 92.36250877 165.83732224 C92.36302049 167.37863416 92.36823002 168.91995225 92.37832069 170.46123123 C92.39071161 172.61718503 92.38387989 174.77228172 92.37231445 176.92822266 C92.37294388 178.15207672 92.3735733 179.37593079 92.3742218 180.63687134 C91.95527439 184.40194877 90.99032253 186.79127168 89 190 C84.76447144 192.82368571 80.97522686 192.66653757 76 192 C73.06576805 190.20353146 71.52794645 189.0558929 70 186 C69.88953916 183.87741008 69.8434695 181.75137035 69.82641602 179.62597656 C69.819729 178.97207947 69.81304199 178.31818237 69.80615234 177.64447021 C69.79209243 176.2225354 69.78020137 174.80057789 69.77020454 173.3786087 C69.75379382 171.1251864 69.73055372 168.87193088 69.70530701 166.61859131 C69.63454982 160.2109815 69.57454097 153.80330191 69.52319336 147.39550781 C69.49131172 143.4768119 69.4500081 139.55830506 69.40299797 135.63976288 C69.38702676 134.14873423 69.37468276 132.657662 69.36609077 131.16657257 C69.35386789 129.07472169 69.32968824 126.98331073 69.30297852 124.89160156 C69.28751732 123.10861664 69.28751732 123.10861664 69.27174377 121.28961182 C68.9272054 117.11878022 68.20777883 113.45939942 65.5 110.1875 C62.7419094 108.00401161 60.87797995 107.8704529 57.43017578 107.85473633 C56.48224152 107.84835648 55.53430725 107.84197662 54.55764771 107.83540344 C53.53057709 107.83429062 52.50350647 107.8331778 51.4453125 107.83203125 C50.39221893 107.82870285 49.33912537 107.82537445 48.25411987 107.82194519 C46.02309609 107.81687557 43.7920647 107.81453688 41.56103516 107.81469727 C38.14603164 107.81251345 34.73135245 107.79436529 31.31640625 107.77539062 C29.15104277 107.7724562 26.98567776 107.77047173 24.8203125 107.76953125 C23.79729034 107.76234573 22.77426819 107.75516022 21.72024536 107.74775696 C20.28888748 107.7523719 20.28888748 107.7523719 18.82861328 107.75708008 C17.99081329 107.75565506 17.15301331 107.75423004 16.28982544 107.75276184 C13.72392712 108.02980828 12.16646689 108.60697082 10 110 C6.82076102 114.76885848 6.8747492 119.09386836 6.8581543 124.73046875 C6.85467987 125.38641022 6.85120544 126.04235168 6.84762573 126.71817017 C6.84030376 128.13515384 6.83493953 129.55214872 6.83133507 130.96914673 C6.82413328 133.21414353 6.80844127 135.45892633 6.78999329 137.70385742 C6.73768404 144.08411816 6.68952836 150.46425573 6.67407227 156.84472656 C6.66398364 160.75404945 6.63464575 164.66282389 6.59275246 168.57192993 C6.58045826 170.0581955 6.57531833 171.54453853 6.57755089 173.03085327 C6.5799077 175.11100776 6.55771587 177.18958964 6.5300293 179.26953125 C6.52416306 180.45135986 6.51829681 181.63318848 6.51225281 182.85083008 C5.89786443 186.62789751 4.64789055 188.28885427 2 191 C-1.71710563 192.85855282 -5.95277281 192.57908439 -10 192 C-13.34625024 189.47323961 -14.67977847 187.96066458 -16 184 C-16.09885075 181.66761456 -16.13504756 179.33244359 -16.14044189 176.99797058 C-16.14341302 176.28093549 -16.14638414 175.56390039 -16.1494453 174.82513696 C-16.15813491 172.41620912 -16.15964076 170.00733096 -16.16113281 167.59838867 C-16.1657608 165.87371209 -16.17078543 164.14903654 -16.17617798 162.42436218 C-16.1893058 157.73420429 -16.19574767 153.04406072 -16.20018864 148.35388732 C-16.20311872 145.42424498 -16.20722341 142.49460657 -16.21169281 139.5649662 C-16.2253687 130.40048719 -16.23503493 121.23601713 -16.2388947 112.07152861 C-16.24337594 101.48931757 -16.26092652 90.90723566 -16.2898953 80.32506388 C-16.31150511 72.14747991 -16.32159861 63.9699323 -16.32293582 55.79232007 C-16.32398434 50.90721857 -16.32990221 46.02223844 -16.34775543 41.13716698 C-16.36422401 36.54152005 -16.36639752 31.9460859 -16.35761642 27.35042 C-16.3568454 25.66458441 -16.36119737 23.97873743 -16.37107468 22.2929306 C-16.38377893 19.98936037 -16.37792614 17.68654546 -16.36749268 15.38298035 C-16.36895924 14.09452304 -16.3704258 12.80606573 -16.3719368 11.47856426 C-15.96234351 7.64781514 -15.03444732 5.25549827 -13 2 C-8.76447144 -0.82368571 -4.97522686 -0.66653757 0 0 Z " fill="#36464E" transform="translate(218,32)"/>
<path d="M0 0 C9.10990519 7.24651549 15.31288227 15.37119866 16.75 27.1875 C17.76372263 38.48326643 14.46219252 48.10539896 7.75 57.1875 C1.41190537 64.47559987 -6.96338323 68.83579016 -16.6015625 69.66796875 C-28.00999976 70.21882087 -37.48125518 68.25312089 -46.625 61 C-54.5066273 53.42970517 -59.21106182 43.16761951 -59.625 32.25 C-59.24832336 21.8176949 -55.73278762 13.11856638 -48.75 5.4375 C-47.925 4.695 -47.1 3.9525 -46.25 3.1875 C-45.5075 2.506875 -44.765 1.82625 -44 1.125 C-30.33257019 -8.50432555 -14.32517145 -7.98903793 0 0 Z M-33.0625 21.6875 C-36.58670718 25.71516534 -36.65388339 29.46435943 -36.59375 34.61328125 C-36.04016264 38.75889569 -34.2437197 41.34386123 -31.25 44.1875 C-26.83514623 47.22884371 -22.52549609 48.09566084 -17.25 47.1875 C-13.24891812 45.7510061 -10.69501046 43.66674203 -7.8125 40.5625 C-5.6933792 35.98519908 -5.44976838 32.15055268 -6.25 27.1875 C-8.43436154 22.81877692 -11.05352018 19.70538789 -15.25 17.1875 C-22.69466812 15.17468232 -27.27541737 16.54342655 -33.0625 21.6875 Z " fill="#56A0D7" transform="translate(245.25,330.8125)"/>
</svg>
