<?xml version="1.0" encoding="UTF-8"?>
<svg version="1.1" xmlns="http://www.w3.org/2000/svg" width="512" height="512">
<path d="M0 0 C10.67961313 2.18685293 19.59662049 1.5202123 30.171875 -0.80859375 C36.95965732 -2.23877059 41.33498477 -2.81857445 48 -0.5 C48.64461182 -0.27610596 49.28922363 -0.05221191 49.95336914 0.1784668 C55.89582152 2.3240459 61.32235975 5.21802467 66.75 8.4375 C66.39671285 8.99284613 66.04342569 9.54819225 65.67943287 10.12036705 C61.33999444 17.68507791 61.03402267 24.19893734 61.09057617 32.79150391 C61.08210731 34.21169432 61.07145606 35.63187313 61.05880737 37.05203247 C61.03083344 40.87792881 61.03310166 44.70326121 61.04110122 48.52922869 C61.04424081 52.53847934 61.01914964 56.54755489 60.99714661 60.55673218 C60.95979482 68.13544829 60.94756389 75.713985 60.9445222 83.29278409 C60.93982171 91.92655316 60.90686673 100.5601436 60.87162435 109.19383359 C60.79980676 126.94170524 60.76319181 144.68949276 60.75 162.4375 C57.71824574 163.24651062 54.68539722 164.05134394 51.65234375 164.85546875 C50.37393616 165.19668762 50.37393616 165.19668762 49.06970215 165.5447998 C15.67819175 174.38112774 -21.54602288 170.30921734 -52.25 154.4375 C-53.8278125 153.65439453 -53.8278125 153.65439453 -55.4375 152.85546875 C-73.38508588 143.64438801 -95.89347847 127.88902538 -105.25 109.4375 C-109.10474006 90.54927369 -94.48412425 65.43331291 -84.46386719 50.22119141 C-66.54072003 23.88440277 -34.1938828 -7.52992951 0 0 Z " fill="#57C87D" transform="translate(204.25,219.5625)"/>
<path d="M0 0 C1.20205078 0.01289063 2.40410156 0.02578125 3.64257812 0.0390625 C4.88845703 0.07257813 6.13433594 0.10609375 7.41796875 0.140625 C8.68318359 0.15867188 9.94839844 0.17671875 11.25195312 0.1953125 C14.3705621 0.24238584 17.48762848 0.30813406 20.60546875 0.390625 C20.63125 1.4528125 20.65703125 2.515 20.68359375 3.609375 C20.85005775 14.68737184 20.85005775 14.68737184 25.60546875 24.390625 C32.13029784 29.52090463 38.78438155 28.97119313 46.82421875 28.921875 C48.20992301 28.9245741 49.59562542 28.92845999 50.98132324 28.93347168 C53.87624256 28.93934726 56.77066598 28.93086757 59.66552734 28.91210938 C63.36098459 28.88931989 67.05527959 28.90245359 70.75069427 28.92639923 C73.60936103 28.94091053 76.46775596 28.93622711 79.32643127 28.92588806 C81.34649416 28.92195335 83.36656797 28.93401983 85.38659668 28.94641113 C92.29475462 28.87606421 97.08150031 28.72509369 102.60546875 24.390625 C106.53172204 19.14920517 107.23405225 14.89371827 107.35546875 8.453125 C107.38511719 7.67388672 107.41476562 6.89464844 107.4453125 6.09179688 C107.51524576 4.19194323 107.56270926 2.2912844 107.60546875 0.390625 C111.98024349 0.27410775 116.35461702 0.203265 120.73046875 0.140625 C121.96796875 0.10710937 123.20546875 0.07359375 124.48046875 0.0390625 C134.76190935 -0.07149062 134.76190935 -0.07149062 138.34765625 2.15625 C141.49067687 5.26664411 142.50745334 7.16123374 142.86273766 11.61750698 C142.86608934 12.90521024 142.86944103 14.19291349 142.87289429 15.51963806 C142.8774254 16.23823315 142.88195651 16.95682823 142.88662493 17.69719893 C142.89928661 20.10540825 142.89764745 22.51339193 142.89599609 24.92163086 C142.90198018 26.64807934 142.90878545 28.37452514 142.91635132 30.10096741 C142.93402916 34.79101362 142.93870741 39.48098688 142.93998289 44.17106318 C142.94188147 48.08519245 142.94923841 51.9993047 142.95632708 55.91342741 C142.97261487 65.14663941 142.97749562 74.3798124 142.97607422 83.61303711 C142.97487217 93.14137213 142.99598563 102.66948087 143.02756155 112.19775862 C143.05369959 120.37620452 143.06444258 128.55457639 143.0631634 136.73306376 C143.0626531 141.61870785 143.06837371 146.50415081 143.0895195 151.38975334 C143.10886069 155.98383096 143.10905471 160.57751468 143.09448624 165.17160606 C143.09239201 166.85786259 143.09713547 168.54414351 143.10920715 170.23035812 C143.12461951 172.5322465 143.11537964 174.83276981 143.09994507 177.1346283 C143.1010346 178.42270858 143.10212414 179.71078886 143.10324669 181.03790188 C142.51667715 184.98867008 141.39267339 186.58415703 138.60546875 189.390625 C135.17227727 191.67941932 133.9263046 191.64333297 129.88748169 191.65132141 C128.69577362 191.65840622 127.50406555 191.66549103 126.27624512 191.67279053 C124.9670813 191.67031311 123.65791748 191.66783569 122.30908203 191.6652832 C120.91775234 191.66962997 119.52642504 191.67481301 118.13510132 191.68077087 C114.35404519 191.69417729 110.57308892 191.69473764 106.79201365 191.69220757 C103.63595933 191.69113878 100.47992529 191.69601899 97.32387531 191.700813 C89.87752258 191.71191428 82.43122029 191.71234238 74.98486328 191.70629883 C67.30326119 191.70026016 59.62184232 191.71256583 51.9402715 191.7338689 C45.34569573 191.75148492 38.75117828 191.75748618 32.15657985 191.75423115 C28.21775069 191.75241784 24.27905216 191.75505904 20.34024429 191.76894569 C16.63511025 191.78151918 12.93026164 191.77958467 9.22513199 191.76653481 C7.2186636 191.76304049 5.21218653 191.77435109 3.20574951 191.78610229 C2.00840179 191.77908798 0.81105408 191.77207367 -0.4225769 191.7648468 C-1.46122831 191.76501454 -2.49987972 191.76518229 -3.57000542 191.76535511 C-6.96852337 191.31447341 -8.71620719 190.53352596 -11.39453125 188.390625 C-14.31012568 183.93412333 -14.77076981 180.4000573 -14.77548218 175.13499451 C-14.78016215 174.42694123 -14.78484212 173.71888795 -14.78966391 172.98937851 C-14.80158207 170.62871195 -14.79216955 168.26862934 -14.78271484 165.90795898 C-14.78678193 164.21077131 -14.79212459 162.51358628 -14.79864502 160.81640625 C-14.81230705 156.2152667 -14.80702484 151.61432924 -14.79750776 147.01318622 C-14.78990666 142.19620902 -14.79695792 137.379249 -14.80166626 132.56227112 C-14.80712197 124.4745066 -14.79993649 116.3868243 -14.78564453 108.29907227 C-14.76931286 98.94908674 -14.77461102 89.59929742 -14.79112375 80.24931663 C-14.80473728 72.21944291 -14.80665909 64.18962824 -14.79880774 56.15974671 C-14.79413121 51.36472454 -14.79350595 46.56979461 -14.80341721 41.77477837 C-14.81208285 37.26770972 -14.80607234 32.76089415 -14.78873444 28.25385284 C-14.78476768 26.59985588 -14.78590688 24.94583762 -14.79252243 23.29184914 C-14.8007206 21.03403584 -14.7904381 18.77703348 -14.77548218 16.51927185 C-14.7743511 15.25591224 -14.77322002 13.99255262 -14.77205467 12.69090939 C-14.22898073 7.94339344 -12.430971 5.42717535 -9.10668945 2.10253906 C-5.79801883 0.01410641 -3.88720269 -0.07369105 0 0 Z M6.60546875 55.390625 C6.27213542 57.890625 6.27213542 57.890625 6.60546875 60.390625 C9.05060066 62.83575691 9.68458755 62.64421516 13.03977966 62.65805054 C14.43835709 62.67084549 14.43835709 62.67084549 15.8651886 62.68389893 C16.89121689 62.68299255 17.91724518 62.68208618 18.97436523 62.68115234 C20.05248474 62.68786957 21.13060425 62.69458679 22.24139404 62.70150757 C25.81982988 62.72056926 29.398079 62.72441581 32.9765625 62.7265625 C35.45516539 62.73298442 37.93376751 62.73971232 40.41236877 62.74673462 C45.61355345 62.75872764 50.81467161 62.76241333 56.01586914 62.76123047 C61.36559935 62.76016146 66.71504117 62.77425953 72.06469727 62.80224609 C78.5120273 62.83549973 84.95909767 62.84934468 91.40651131 62.84801102 C93.86857633 62.85037742 96.33064377 62.85925887 98.79266167 62.87467575 C102.23113958 62.89419143 105.66868599 62.88855414 109.10717773 62.87646484 C110.13118179 62.88770386 111.15518585 62.89894287 112.21022034 62.91052246 C113.14542511 62.90213348 114.08062988 62.89374451 115.04417419 62.88510132 C115.85736335 62.88619085 116.6705525 62.88728039 117.50838375 62.88840294 C119.77673909 62.54565519 119.77673909 62.54565519 121.44133091 60.53159523 C122.94885333 58.36028089 122.94885333 58.36028089 121.79296875 55.640625 C121.20515625 54.526875 121.20515625 54.526875 120.60546875 53.390625 C106.03703948 53.34394557 91.46862178 53.30878897 76.90013313 53.28700066 C70.13603341 53.27667929 63.3719801 53.26260261 56.60791016 53.23974609 C50.08514453 53.21771544 43.56240909 53.20606943 37.039608 53.20087051 C34.54602167 53.19716363 32.05243809 53.18992547 29.55887222 53.17916489 C26.07711235 53.16473203 22.59555431 53.16264361 19.11376953 53.16357422 C18.07367737 53.15638367 17.03358521 53.14919312 15.9619751 53.14178467 C14.54427322 53.14590866 14.54427322 53.14590866 13.09793091 53.15011597 C12.27384798 53.14827238 11.44976505 53.14642879 10.60070992 53.14452934 C8.37453287 53.21140807 8.37453287 53.21140807 6.60546875 55.390625 Z M6.60546875 85.390625 C6.35525305 88.47428371 6.35525305 88.47428371 6.60546875 91.390625 C9.58734334 93.09990521 11.73393247 93.64347109 15.15966797 93.65805054 C16.06811462 93.66658051 16.97656128 93.67511047 17.91253662 93.68389893 C18.9017511 93.68299255 19.89096558 93.68208618 20.91015625 93.68115234 C21.95770081 93.68786957 23.00524536 93.69458679 24.08453369 93.70150757 C27.5498935 93.72051772 31.01506003 93.72441301 34.48046875 93.7265625 C36.88655681 93.73298722 39.29264407 93.73971533 41.69873047 93.74673462 C46.74253146 93.75871416 51.78626391 93.76241463 56.83007812 93.76123047 C63.30017854 93.76102699 69.76984112 93.78835613 76.23983765 93.82277489 C81.20859811 93.84498398 86.1772521 93.84906988 91.14605713 93.84801102 C93.53193677 93.85037498 95.917819 93.85924292 98.3036499 93.87467575 C101.63634175 93.8942184 104.96807476 93.88854381 108.30078125 93.87646484 C109.28999573 93.88770386 110.27921021 93.89894287 111.29840088 93.91052246 C116.67696747 93.93835751 116.67696747 93.93835751 121.24951172 91.36026001 C121.92071045 90.38529068 121.92071045 90.38529068 122.60546875 89.390625 C121.48692289 85.66448347 121.48692289 85.66448347 118.60546875 83.390625 C117.15517542 83.29446169 115.7005603 83.25996437 114.24708557 83.25691223 C113.33152893 83.25264725 112.41597229 83.24838226 111.47267151 83.24398804 C110.4653447 83.24444122 109.45801788 83.24489441 108.42016602 83.24536133 C107.36155365 83.24200272 106.30294128 83.2386441 105.21224976 83.23518372 C101.6987797 83.22565338 98.18535719 83.2237296 94.671875 83.22265625 C92.2381132 83.21944526 89.8043516 83.21608131 87.37059021 83.21257019 C82.26357577 83.2065738 77.15657826 83.20473083 72.04956055 83.20532227 C65.49424384 83.20542395 58.93903529 83.19176757 52.38374424 83.17455006 C47.35584511 83.16345114 42.32797231 83.1614024 37.30006218 83.16193199 C34.88266565 83.16074885 32.46526851 83.15630848 30.04788399 83.14859962 C26.67190011 83.13884172 23.29615342 83.14166113 19.92016602 83.14770508 C18.91486343 83.14208557 17.90956085 83.13646606 16.87379456 83.13067627 C15.95541809 83.13487076 15.03704163 83.13906525 14.09083557 83.14338684 C13.29239511 83.14284207 12.49395464 83.14229731 11.67131901 83.14173603 C9.29741133 83.27013432 9.29741133 83.27013432 6.60546875 85.390625 Z M6.60546875 116.390625 C6.27213542 118.890625 6.27213542 118.890625 6.60546875 121.390625 C9.05168013 123.83683638 9.68334322 123.64284427 13.03977966 123.65132141 C14.43835709 123.66194862 14.43835709 123.66194862 15.8651886 123.67279053 C17.40423103 123.6690744 17.40423103 123.6690744 18.97436523 123.6652832 C20.05248474 123.67039413 21.13060425 123.67550507 22.24139404 123.68077087 C25.81983936 123.69471772 29.39809317 123.69370627 32.9765625 123.69140625 C35.45516533 123.69529037 37.93376749 123.69962445 40.41236877 123.70439148 C45.61355749 123.71186466 50.81467834 123.71155445 56.01586914 123.70629883 C61.36555187 123.70092593 66.71504542 123.70797062 72.06469727 123.72680664 C78.51200912 123.74922027 84.95916264 123.75706574 91.40651131 123.75313377 C93.86856701 123.75364848 96.33062634 123.75891409 98.79266167 123.76894569 C102.23101876 123.78123501 105.66882986 123.77456329 109.10717773 123.76293945 C110.64318382 123.77440506 110.64318382 123.77440506 112.21022034 123.78610229 C113.14542511 123.77908798 114.08062988 123.77207367 115.04417419 123.7648468 C116.26395792 123.76509841 116.26395792 123.76509841 117.50838375 123.76535511 C120.11500157 123.2995761 121.03295716 122.48894115 122.60546875 120.390625 C122.33510728 117.41664884 121.75100849 116.53616474 119.60546875 114.390625 C117.5552352 114.08724858 117.5552352 114.08724858 115.16442871 114.13665771 C114.2305986 114.13101807 113.29676849 114.12537842 112.3346405 114.11956787 C110.7932415 114.12564056 110.7932415 114.12564056 109.22070312 114.13183594 C108.14097733 114.1283313 107.06125153 114.12482666 105.94880676 114.12121582 C102.36554612 114.11238462 98.78248154 114.11825262 95.19921875 114.125 C92.71822064 114.12365375 90.23722279 114.12171356 87.75622559 114.11920166 C81.88313846 114.11586971 76.01012297 114.1228882 70.13704634 114.1335032 C65.4482688 114.14101274 60.7595752 114.1383573 56.07080078 114.12988281 C49.61702532 114.11831695 43.16333122 114.1164593 36.70954895 114.12299347 C34.24388103 114.1243314 31.77820968 114.12267727 29.31254578 114.11803436 C25.87168104 114.11297767 22.43107943 114.12066744 18.99023438 114.13183594 C17.96263504 114.12778748 16.93503571 114.12373901 15.876297 114.11956787 C14.94246689 114.12520752 14.00863678 114.13084717 13.04650879 114.13665771 C12.23239784 114.13741177 11.4182869 114.13816582 10.57950592 114.13894272 C8.37237528 114.21571896 8.37237528 114.21571896 6.60546875 116.390625 Z M6.60546875 146.390625 C5.43880208 148.22395833 5.43880208 148.22395833 5.60546875 150.390625 C6.90388118 152.70887795 6.90388118 152.70887795 9.60546875 154.390625 C13.10075005 155.00002707 16.56946962 154.92623839 20.10961914 154.89233398 C21.17827713 154.89773697 22.24693512 154.90313995 23.34797668 154.90870667 C26.8833071 154.92122262 30.41782781 154.90468414 33.953125 154.88671875 C36.4064488 154.88687366 38.85977285 154.88836129 41.31309509 154.89112854 C46.45534072 154.89251379 51.59730785 154.87993208 56.73950195 154.85717773 C63.33969939 154.82877819 69.93943445 154.83153299 76.53966618 154.84426785 C81.60534127 154.85121325 86.67090897 154.84344897 91.73657036 154.83101082 C94.17070542 154.82648631 96.60485198 154.8261682 99.03898811 154.83007622 C102.43647137 154.83297759 105.83331085 154.81653273 109.23071289 154.79467773 C110.24222412 154.79917938 111.25373535 154.80368103 112.29589844 154.80831909 C113.21979874 154.79841446 114.14369904 154.78850983 115.09559631 154.77830505 C115.89881349 154.77587516 116.70203066 154.77344526 117.52958775 154.77094173 C120.12998082 154.29453051 121.04354118 153.49500819 122.60546875 151.390625 C122.68571533 148.79172717 122.68571533 148.79172717 121.60546875 146.390625 C118.72505323 144.54777492 116.47279333 144.13992799 113.0892334 144.13665771 C112.1892009 144.13101807 111.2891684 144.12537842 110.36186218 144.11956787 C109.38199844 144.12361633 108.4021347 144.12766479 107.39257812 144.13183594 C106.35478714 144.1283313 105.31699615 144.12482666 104.24775696 144.12121582 C100.81484299 144.11240816 97.38213484 144.11824436 93.94921875 144.125 C91.56555135 144.12365308 89.18188423 144.12171231 86.79821777 144.11920166 C81.80148708 144.1162517 76.80482786 144.12054399 71.80810547 144.12988281 C65.39866191 144.1412772 58.98938584 144.13471705 52.57994843 144.12273788 C47.65751887 144.11551588 42.73512911 144.1178088 37.81269836 144.12299347 C35.4491626 144.12432902 33.08562324 144.12268556 30.72209167 144.11803436 C27.42074998 144.11296364 24.11968074 144.12068732 20.81835938 144.13183594 C19.83849564 144.12778748 18.8586319 144.12373901 17.84907532 144.11956787 C16.49902657 144.12802734 16.49902657 144.12802734 15.1217041 144.13665771 C13.95144558 144.13778879 13.95144558 144.13778879 12.75754547 144.13894272 C10.30283966 144.42601704 8.70094854 145.0942894 6.60546875 146.390625 Z " fill="#57C87D" transform="translate(286.39453125,229.609375)"/>
<path d="M0 0 C1.01790619 0.00215515 2.03581238 0.0043103 3.08456421 0.00653076 C17.69363523 0.05620146 32.02575853 0.30709809 46.375 3.3125 C47.34985352 3.51117676 48.32470703 3.70985352 49.32910156 3.91455078 C97.7109774 14.03517194 141.69928269 35.9516877 177.375 70.3125 C178.3640332 71.26068604 178.3640332 71.26068604 179.37304688 72.22802734 C188.86130305 81.37247479 197.6012044 90.66984009 205.375 101.3125 C206.23306152 102.46355017 207.09113451 103.61459177 207.94921875 104.765625 C213.98736829 112.95680614 219.34595521 121.47054105 224.375 130.3125 C224.73948242 130.94430176 225.10396484 131.57610352 225.47949219 132.22705078 C247.08534998 169.97532572 256.85198095 212.74189997 256.6875 255.9375 C256.68534485 256.95540619 256.6831897 257.97331238 256.68096924 259.02206421 C256.63129854 273.63113523 256.38040191 287.96325853 253.375 302.3125 C253.07698486 303.77478027 253.07698486 303.77478027 252.77294922 305.26660156 C242.65232806 353.6484774 220.7358123 397.63678269 186.375 433.3125 C185.74287598 433.97185547 185.11075195 434.63121094 184.45947266 435.31054688 C175.31502521 444.79880305 166.01765991 453.5387044 155.375 461.3125 C154.22394983 462.17056152 153.07290823 463.02863451 151.921875 463.88671875 C143.73224019 469.92427396 135.22961724 475.30707302 126.375 480.3125 C125.66778809 480.7146875 124.96057617 481.116875 124.23193359 481.53125 C101.09654164 494.5566741 75.92537591 503.30551461 49.9375 508.625 C49.21860596 508.77235596 48.49971191 508.91971191 47.7590332 509.0715332 C33.08339502 511.86090125 18.55831162 512.66142619 3.64770508 512.62817383 C0.70811513 512.6250221 -2.2304558 512.64854926 -5.16992188 512.67382812 C-18.54306192 512.71848737 -31.43916711 511.51301542 -44.625 509.3125 C-46.33055054 509.03031616 -46.33055054 509.03031616 -48.07055664 508.74243164 C-91.33802759 500.97044532 -132.38793216 480.98345309 -165.625 452.3125 C-166.37007813 451.67828125 -167.11515625 451.0440625 -167.8828125 450.390625 C-181.38779833 438.57948485 -194.05918743 425.82889772 -204.625 411.3125 C-205.48149066 410.16255169 -206.33826433 409.01281411 -207.1953125 407.86328125 C-213.23534209 399.67315742 -218.61867614 391.16870382 -223.625 382.3125 C-224.0271875 381.60528809 -224.429375 380.89807617 -224.84375 380.16943359 C-237.8691741 357.03404164 -246.61801461 331.86287591 -251.9375 305.875 C-252.08485596 305.15610596 -252.23221191 304.43721191 -252.3840332 303.6965332 C-255.35789088 288.05024391 -255.99800362 272.57681954 -255.9375 256.6875 C-255.93534485 255.66959381 -255.9331897 254.65168762 -255.93096924 253.60293579 C-255.88129854 238.99386477 -255.63040191 224.66174147 -252.625 210.3125 C-252.42632324 209.33764648 -252.22764648 208.36279297 -252.02294922 207.35839844 C-241.90232806 158.9765226 -219.9858123 114.98821731 -185.625 79.3125 C-184.99287598 78.65314453 -184.36075195 77.99378906 -183.70947266 77.31445312 C-174.56502521 67.82619695 -165.26765991 59.0862956 -154.625 51.3125 C-153.47394983 50.45443848 -152.32290823 49.59636549 -151.171875 48.73828125 C-142.98224019 42.70072604 -134.47961724 37.31792698 -125.625 32.3125 C-124.91778809 31.9103125 -124.21057617 31.508125 -123.48193359 31.09375 C-100.34654164 18.0683259 -75.17537591 9.31948539 -49.1875 4 C-48.46860596 3.85264404 -47.74971191 3.70528809 -47.0090332 3.5534668 C-31.36274391 0.57960912 -15.88931954 -0.06050362 0 0 Z M-98.625 31.3125 C-99.36153809 31.63331543 -100.09807617 31.95413086 -100.85693359 32.28466797 C-124.29076364 42.59094703 -145.22734639 56.76815635 -164.11328125 74.0234375 C-165.8049032 75.56510229 -167.51105651 77.09095444 -169.23046875 78.6015625 C-174.47208892 83.2167258 -179.14750819 87.96361227 -183.625 93.3125 C-184.42292969 94.21097656 -185.22085938 95.10945313 -186.04296875 96.03515625 C-227.54707949 143.08435061 -248.81204481 207.46318939 -245.36328125 269.91796875 C-241.39019811 326.17082891 -220.01702248 380.21610164 -181.22265625 421.52734375 C-178.90207802 424.01542237 -176.66241665 426.55175981 -174.4375 429.125 C-170.78179657 433.24503673 -166.83743648 436.77577858 -162.625 440.3125 C-161.72523438 441.11171875 -160.82546875 441.9109375 -159.8984375 442.734375 C-113.3428959 483.80834039 -49.52599923 505.25121976 12.3203125 502.05078125 C63.57058046 498.76974058 112.05630542 481.31408682 152.375 449.3125 C153.33921875 448.55324219 154.3034375 447.79398437 155.296875 447.01171875 C169.5166008 435.40856686 183.51004767 422.14892165 194.375 407.3125 C195.05369141 406.39186768 195.05369141 406.39186768 195.74609375 405.45263672 C221.70563071 370.06169656 238.81780825 330.01963307 244.375 286.3125 C244.46232895 285.63147217 244.5496579 284.95044434 244.63963318 284.2487793 C245.28129927 278.90879875 245.54768984 273.64942117 245.578125 268.2734375 C245.58871445 267.02079353 245.58871445 267.02079353 245.59951782 265.74284363 C245.77613453 239.39279453 245.77613453 239.39279453 242.375 213.3125 C242.17632324 212.29269043 241.97764648 211.27288086 241.77294922 210.22216797 C233.37463556 168.25576314 215.40191765 129.78649315 187.375 97.3125 C186.71757812 96.54421875 186.06015625 95.7759375 185.3828125 94.984375 C174.14618049 82.17885475 162.11900045 70.3864724 148.375 60.3125 C147.52107666 59.67538086 147.52107666 59.67538086 146.64990234 59.02539062 C133.08067425 48.91063475 118.71648273 40.45178122 103.375 33.3125 C102.66956055 32.9839502 101.96412109 32.65540039 101.23730469 32.31689453 C81.26529407 23.16193933 60.05552636 16.81403299 38.375 13.3125 C37.08464844 13.09980469 35.79429687 12.88710937 34.46484375 12.66796875 C-10.61728588 6.18770399 -57.032089 13.02084036 -98.625 31.3125 Z " fill="#57C87D" transform="translate(255.625,-0.3125)"/>
<path d="M0 0 C13.57003217 9.85857038 21.04963645 24.67005725 24.28515625 40.84765625 C25.89739808 59.22721313 21.73117722 75.44985393 10.41015625 90.22265625 C-1.80755194 104.30724684 -16.99412501 110.90035764 -35.3125 112.6953125 C-51.23900531 113.23479648 -66.42435777 107.68685439 -78.40234375 97.41015625 C-79.64177734 96.47236328 -79.64177734 96.47236328 -80.90625 95.515625 C-92.61505171 85.63918662 -98.64575569 69.95890406 -100.21484375 55.09765625 C-101.19002383 37.97105602 -95.90312904 21.73253839 -84.99609375 8.48828125 C-62.01584548 -15.97892427 -27.44487536 -18.16270613 0 0 Z " fill="#57C87D" transform="translate(255.40234375,102.58984375)"/>
<path d="M0 0 C0.82951172 -0.020625 1.65902344 -0.04125 2.51367188 -0.0625 C8.00645368 -0.09718213 11.85745733 0.56594779 16.6875 3.25 C19.6875 7.99193548 19.6875 7.99193548 19.6875 11.25 C20.41195312 11.19199219 21.13640625 11.13398438 21.8828125 11.07421875 C23.33300781 11.00654297 23.33300781 11.00654297 24.8125 10.9375 C26.23949219 10.85048828 26.23949219 10.85048828 27.6953125 10.76171875 C30.92435579 11.2886514 33.08068066 12.19424441 35.50976562 14.42895508 C38.07888031 18.40139008 37.49752521 23.1852237 37.375 27.75 C37.38982422 28.78253906 37.40464844 29.81507813 37.41992188 30.87890625 C37.34004012 38.16224309 37.34004012 38.16224309 35.01098633 42.04467773 C29.63796921 45.60998029 24.11622588 44.94247758 17.8125 44.87890625 C16.4415671 44.87973558 15.0706343 44.88219736 13.69970703 44.88621521 C10.83139998 44.88906872 7.96387574 44.87441791 5.09570312 44.84692383 C1.42685294 44.81283995 -2.24059819 44.81886245 -5.90951538 44.8375864 C-8.73896865 44.84817655 -11.56809872 44.83920069 -14.39752197 44.82420158 C-16.40546368 44.81652867 -18.41344464 44.82386085 -20.42138672 44.83143616 C-21.64615723 44.81559982 -22.87092773 44.79976349 -24.1328125 44.78344727 C-25.20805176 44.77724869 -26.28329102 44.77105011 -27.39111328 44.7646637 C-31.00889536 44.12731532 -32.68955021 42.77097357 -35.3125 40.25 C-37.11989357 36.63521286 -36.54006068 32.41767454 -36.5625 28.4375 C-36.583125 27.53451172 -36.60375 26.63152344 -36.625 25.70117188 C-36.65407247 20.75521735 -36.63895556 17.20599505 -33.3125 13.25 C-29.78570901 10.89880601 -28.28370515 11.03556548 -24.125 11.125 C-23.03832031 11.14304688 -21.95164062 11.16109375 -20.83203125 11.1796875 C-19.58486328 11.21449219 -19.58486328 11.21449219 -18.3125 11.25 C-18.23 10.3425 -18.1475 9.435 -18.0625 8.5 C-17.20482474 4.7834072 -16.2983613 3.55337872 -13.3125 1.25 C-8.93949935 -0.13774612 -4.54507128 0.02786251 0 0 Z " fill="#57C87D" transform="translate(350.3125,207.75)"/>
</svg>
